<svg id="Layer_1" xmlns="http://www.w3.org/2000/svg" viewBox="0 0 30.2 28.7" class="cwr-svg-1star"><style>.st0{fill-rule:evenodd;clip-rule:evenodd;fill:#c7ba91}</style><path id="XMLID_2401_" class="st0" d="M30.2 51.3l-.4.4v-.6h.4z"/><path id="XMLID_2399_" class="st0" d="M6 14.8v-1.6c-1.5.9-.2 1.4 0 1.6z"/><path id="XMLID_2398_" class="st0" d="M8.8 26.5l-.5.5c-.1-.3-.3-.5-.3-.8 0-.6.7-.5.7-1 0-.6 0-.4-.3-.7-.5.5-.8.7-1 1v2.3l-.8.5-.6.4v-.8l.3-.7.2-.7.3-.7.2-.7.2-.7.2-.7.2-.6c.1.3.4.5.7.7v-2.5l-.1-.4.4-.7.1-.7.2-.7.2-.7-.1-.6-.7-.3-.6-.4-.6-.4-.5-.5-.6-.6-.7-.3-.5-.6-.7-.3-.6-.5-.7-.3-.6-.5-.6-.4-.5-.4-.5-.5L0 11l.8-.1h.7l.7-.1c.1.2-.2.2-.2.7 0 .6.1.6.7.8v-1.4H3l.7-.1.7-.1.7.1c-.1.9.2 1.2.7 1.4v-1.4l.7-.1.7.1h.7l.7-.1H10l.7.1.5-.4.3-.7.5-.6.3-.7.1-.7.3-.7.3-.7.2-.7.3-.7.2-.7.2-.7.3-.7.2-.7.2-.7.3-.7.2-.7.3.7.3.7.3.7.1.7.3.7.2.7.2.7.3.7.2.7.2.7.1.7.4.6.1.7.3.7.1.7.5.4.7-.1.7.1.7.1.7-.1.7.1.7-.1h.7l.7.1h.7l.7-.1.7.1.7.1h1.4l.7-.1-.5.7.1.4-.7.3-.6.5-.5.6-.7.3-.6.3-.5.5-.7.4-.5.5-.6.4-.6.4-.7.3-.6.5-.5.5-.3.5.2.7.2.7.3.7.2.7.3.7.3.7.2.7.1.7.3.7.2.7.1.7.2.7.3.7.2.7.3.7-.8-.3-.6-.5-.7-.3-.3-.4-.6-.5-.6-.5-.6-.4-.6-.5-.6-.3-.7-.3-.5-.5-.6-.4-.6-.4-.6-.5-.5-.5-.6.1-.7.3-.6.5-.5.5-.6.4-.6.4-.5.5-.7.3-.5.5-.7.4-.7.4z"/></svg>