<svg id="Layer_1" xmlns="http://www.w3.org/2000/svg" viewBox="0 0 30.2 109.3" class="cwr-svg-3star"><style>.st0{fill-rule:evenodd;clip-rule:evenodd;fill:#c7ba91}</style><path class="st0" d="M21 63.2c-.1.2-.3.5-.3 1.2.3 0 .6-.3.6-.3 0-.2-.2-.7-.3-.9zm.1-5.8c-.3 0-.6.5-.6.8l.6.5v-1.3zM17.7 55c-.1.4-.3.6-.2 1.8.6-.2.9-.6.9-1.1 0-.6-.3-.4-.7-.7zm3-.2v1.4c.4-.6.4-1.1 0-1.4zm3-.5c-.3.3-.7.2-.7.8s.1.6.7.8v-1.6zm-2.9-2.2c-.2 0-.3.7-.6 1.1.3.1.4.4.5.8.6-.5.8-1.2.8-1.8h-.7zm3-.5c-.4.3-.8.8-.8 1.3.3 0 .9.2 1.1 0 0-.7-.2-1-.3-1.3zm.6 17.4l-.1-.6h-.7l-.4-.2-.7-.3-.5-.6-.6-.5-.4-.3c-.1-.8-.2-1-.2-1.2-.3 0-.6.1-.6.6l-.6-.4-.6-.3-.5-.5-.5-.3c.1-.2.1-.6 0-1.1-.1.4-.6.1-.6.7l-.8-.6-.6-.4-.6-.4-.6.1-.7.3-.6.4-.5.5-.6.4-.5.5-.6.4-.6.4-.7.3-.6.4-.5.5-.6.4-.6.4-.6.4-.6.5-.6.5v-.8l.3-.7.2-.7.1-.7.3-.7.3-.7.2-.7.3-.7.2-.7.2-.7.2-.7.2-.7.2-.7.2-.7.3-.7-.2-.5-.6-.4-.5-.5-.6-.5-.6-.5-.6-.3-.6-.4-.6-.5-.5-.5-.7-.3-.6-.4-.6-.6-.6-.4-.7-.3-.6-.4-.5-.5.8-.3H6l.7.1.7-.1.7.1.7-.1.7.1h.7l.7-.2.6-.2.2-.7.3-.7.2-.7.2-.7.1-.7.3-.7.2-.7.3-.7.2-.7.2-.7.2-.7.1-.7.4-.7.1-.7.3-.7h.4l.2.7.2.7.3.7.1.7.2.7.4.7.3.7.2.7.3.7.2.7.2.7.2.7.3.7.1.7.4.7.4.3.7.1.7.1.7-.1h1.4l.7-.1.7.1.7.1h1.4l.7-.1h1.9v1.1l-.8.4-.2.3-.5.5-.4.3c-.2 0-.5.1-.6.3l-.8.5-.6.4-.6.4-.6.6-.6.5-.6.5-.6.4-.6.5-.1.5.1.7.2.7.2.7.2.7.2.7.2.7.4.7.3.7.2.7.3.7c-.3.5-.3 1.2-.5 1.8.3.1.3.2 1 .3l.4.8.1.7h-.1zm5.8-17.7l-.4.4v-.6h.4v.2zM6 14.8v-1.6c-1.5.9-.2 1.4 0 1.6zm2.8 11.7l-.5.5c-.1-.3-.3-.5-.3-.8 0-.6.7-.5.7-1 0-.6 0-.4-.3-.7-.5.5-.8.7-1 1v2.3l-.8.5-.6.4v-.8l.3-.7.2-.7.3-.7.2-.7.2-.7.2-.7.2-.6c.1.3.4.5.7.7v-2.5l-.1-.4.4-.7.1-.7.2-.7.2-.7-.1-.6-.7-.3-.6-.4-.6-.4-.5-.5-.6-.6-.7-.3-.5-.6-.7-.3-.6-.5-.7-.3-.6-.5-.6-.4-.5-.4-.5-.5L0 11l.8-.1h.7l.7-.1c.1.2-.2.2-.2.7 0 .6.1.6.7.8v-1.4H3l.7-.1.7-.1.7.1c-.1.9.2 1.2.7 1.4v-1.4l.7-.1.7.1h.7l.7-.1H10l.7.1.5-.4.3-.7.5-.6.3-.7.1-.7.3-.7.3-.7.2-.7.3-.7.2-.7.2-.7.3-.7.2-.7.2-.7.3-.7.2-.7.3.7.3.7.3.7.1.7.3.7.2.7.2.7.3.7.2.7.2.7.1.7.4.6.1.7.3.7.1.7.5.4.7-.1.7.1.7.1.7-.1.7.1.7-.1h.7l.7.1h.7l.7-.1.7.1.7.1h1.4l.7-.1-.5.7.1.4-.7.3-.6.5-.5.6-.7.3-.6.3-.5.5-.7.4-.5.5-.6.4-.6.4-.7.3-.6.5-.5.5-.3.5.2.7.2.7.3.7.2.7.3.7.3.7.2.7.1.7.3.7.2.7.1.7.2.7.3.7.2.7.3.7-.8-.3-.6-.5-.7-.3-.3-.4-.6-.5-.6-.5-.6-.4-.6-.5-.6-.3-.7-.3-.5-.5-.6-.4-.6-.4-.6-.5-.5-.5-.6.1-.7.3-.6.5-.5.5-.6.4-.6.4-.5.5-.7.3-.5.5-.7.4-.7.4zm15.5 82.8l-.6-.5-.6-.5-.6-.4-.6-.4-.5-.5-.7-.3-.5-.6-.6-.4-.6-.5-.6-.5-.6-.4-.6-.4-.6-.4-.6-.4-.5-.5-.6.1-.6.5-.6.4-.7.4-.6.5-.6.4-.6.5-.6.4-.6.5-.6.4-.5.3-.5.5-.6.5-.6.4-.6.4-.6.4-.1-.1.1-.7.3-.7.1-.7.2-.7.3-.7.2-.7.1-.7.3-.7.3-.7.2-.7.3-.7.3-.7.2-.7.1-.8.1-.6-.1-.5-.5-.5-.6-.4-.6-.4-.6-.4-.6-.5-.6-.4-.6-.5-.6-.4-.6-.4-.6-.5-.6-.4-.6-.4-.5-.6-.7-.3-.6-.4.1-.2h2.8l.7-.1.7.1H6.4l.7-.1.7.1h.7l.7.1.7-.1.7.1.5-.4.3-.7.1-.7.2-.7.2-.7.2-.7.3-.7.3-.7.2-.7.1-.7 1-.8.2-.7.1-.7.3-.7.2-.7.4-.7h.1l.2.7.2.7.3.7.2.7.2.7.2.7.2.7.2.7.3.7.3.7.2.7.2.7.2.7.2.7.4.7.4.4.7-.1.7.2.7-.1h.7l.7-.1H24.8l.7.1.7.1.7-.2.7.2H29l.7-.1V92l-.6.4-.6.4-.6.3-.6.4-.6.4-.7.6-.5.6-.6.4-.7.3-.5.6-.7.3-.5.5-.7.3-.5.6-.3.5.3.7.2.7.2.7.3.7.2.7.2.7.4.6.2.7.2.7.1.8.3.7.4.7.2.7.1.7.2.7-.2.2z"/></svg>