<svg id="Layer_1" xmlns="http://www.w3.org/2000/svg" viewBox="0 0 249.3 63"><style>.st0{fill:#aa9865}.st0,.st1{fill-rule:evenodd;clip-rule:evenodd}.st2{fill:#aa9865}</style><path id="XMLID_1129_" class="st0" d="M214.4 50.6c-3.6.8-5.9 2.6-8 4.5-1.1 1-2.2 2-3.3 2.9-1.2.9-2.5 1.6-4.2 2-2.5.6-5 .4-5.3-1.7-.1-.4 0-.6.1-.8v-.1c0-.1 0-.1.1-.1 0 0 0-.1-.1-.1h-.1-.1l-.1.1c-.1.2-.2.5-.1.9.4 2.4 3.1 3 5.8 2.4 3.5-.9 5.8-2.6 7.9-4.5 1.1-1 2.1-2 3.3-2.9 1.2-.9 2.5-1.6 4.2-2 2.6-.6 5.1 0 5.4 2.1 0 .4 0 .6-.1.8V54.4h.2l.1-.1c.1-.2.2-.5.1-.9-.3-2.3-3.2-3.4-5.8-2.8z"/><path id="XMLID_1128_" class="st0" d="M25.4 53.5c-.1.4 0 .7.1.9 0 .1.1.1.1.1s.1.1.2 0c0 0 .1-.1 0-.2v-.1c-.1-.1-.1-.4-.1-.8.3-2.1 2.8-2.7 5.4-2.1 1.6.4 3 1.1 4.2 2 1.2.9 2.3 1.9 3.3 2.9 2.1 1.9 4.4 3.6 7.9 4.5 2.6.7 5.4 0 5.8-2.4.1-.4 0-.8-.1-.9 0-.1-.1-.1-.1-.1H52h-.1s-.1.1 0 .1v.2c.1.1.1.4.1.8-.3 2.1-2.7 2.3-5.3 1.7-1.6-.4-3-1.1-4.2-2-1.2-.9-2.2-1.9-3.3-2.9-2.1-1.9-4.3-3.7-8-4.5-2.6-.7-5.4.4-5.8 2.8z"/><path id="XMLID_1085_" class="st0" d="M95.4 38.9c-.1-.1-.1-.1-.2 0s-.1.2-.1.2c-.3.3-.4.7-.4.9v.1c0 .1.1.1.2.2h.1l.8-.8c-.1-.1-.1-.2-.2-.4 0 .1-.1-.1-.2-.2zm8-3.9c-.1-.5-.1-.8-.1-1V9.7c-.3-.1-.5-.3-.7-.6v23c0 .3.1.7.2 1.4.2.7.4 1.1.6 1.5zm2.5 3.2h-.2c-.4 0-.9.3-1.6.8-.6.5-1.2.9-1.6 1.3-.5.3-.9.6-1.2.9l.2-.4c-.1.2-.3.5-.5.6-.2.2-.4.3-.5.4-.1.1-.2.3-.2.4 0 .1.1.3.3.5.1.1.2.1.2.2l.1.1h.8c.1 0 .2-.1.4-.4.2-.3.3-.4.3-.5.5-.3 1-.7 1.6-1.1.6-.4 1.2-.8 1.7-1.2.5-.4 1-.8 1.3-1.1.4-.3.6-.6.6-.8v-.3c-.3 0-.7.1-.9.4-.2.1-.5.2-.8.2zm3-32.1v.1c0 1.1-.3 2-.9 2.8-.5.8-1.4 1.1-2.7 1.1.4.5 1 .7 1.8.7.9 0 1.5-.2 1.9-.8.4-.5.6-1.2.6-2 0-.4-.1-.8-.2-1.1-.1-.1-.2-.4-.5-.8zm-41 16.5c.3.1.6.2 1 .2 1 0 1.8-.2 2.5-.7.8-.5 1.5-1.1 2-1.7.6-.7 1.1-1.5 1.4-2.4.3-.8.5-1.6.5-2.4-.5 0-.8.2-1.1.7-.2.4-.5.8-.8 1.1-.7 1.2-1.6 2.1-2.7 2.8-1.1.7-2.2 1.3-3.5 1.8H67c.1 0 .3.1.5.2l.4.4zm-3.2 2.7v-3.9c-.2-.1-.4-.2-.6-.4l-.1 3.8v.4c.2.2.4.1.7.1zm1 5c.4-.3.7-.5.9-.7v-.3c0-.2-.1-.3-.3-.5-.2-.2-.3-.2-.5-.2-.3 0-.7.1-1.1.4l-1.3.8c-.5.3-1 .5-1.5.8-.5.3-1.1.4-1.7.4H60l.4.2c.5.3 1.1.5 1.7.5.4 0 .8-.1 1.2-.2.4-.2.9-.3 1.3-.5.3-.3.8-.5 1.1-.7zm9.6-2.3c.1.4.1.9.1 1.3.1.4.1.8.1 1.1v.4c-.1.8-.2 1.5-.2 2.1 0 .6-.2 1.3-.5 2-.3.9-1 1.6-1.9 2.2-.9.6-1.8 1.1-2.7 1.5l-.6.3-.2.1c-.1 0-.3.2-.7.4-.3.2-.6.4-1 .6-.6.4-1.2.8-1.7 1.2-.5.4-1.1.7-1.7 1 .2.2.3.3.4.5l.5.5h.2c.1 0 .3-.1.5-.2s.4-.3.7-.5c.3-.2.5-.3.7-.5.2-.2.4-.3.5-.3.4-.4 1-.8 1.7-1.1l2.4-1c.8-.4 1.6-.8 2.2-1.3.7-.5 1.2-1.1 1.5-1.7.3-.6.4-1.2.4-1.8 0-.6.1-1.3.1-2v-.2c0-.7-.1-1.5-.2-2.2-.1-1-.3-1.7-.6-2.4zM58.7 39.7c-.3 0-.5.1-.7.4-.2.2-.4.5-.5.8l-.3.9c-.1.3-.1.5-.1.7h.2c.2 0 .4-.1.6-.3l.8-.8c.3-.2.6-.5.9-.7.3-.2.7-.3 1-.3h.2c-.3 0-.7-.1-1-.3-.3-.3-.7-.4-1.1-.4zm33.8-2.3c-.1 0-.2.2-.6.5-.3.3-.6.5-.8.5-.3 0-.7.2-1.3.5-.5.3-1.1.8-1.6 1.2-.6.5-1.1 1-1.6 1.5s-.8.9-1 1.2h-.1l.2.2c.3.3.6.5.9.5h.3c.1 0 .5-.3 1.1-.8.6-.5 1.3-1.1 2-1.7.7-.7 1.4-1.3 2-1.9.6-.6.9-1 1-1.2v-.2l-.2-.1h-.3zm-11.7 1.9l-.1.1c-.4.4-.6.9-.6 1.4h.6l.8-.8-.3-.4c-.2-.1-.3-.2-.4-.3zm8-21.4h-.4c-.1-.1-.2-.2-.2-.3v16c0 .3.1.5.2.9.2.3.3.6.5.7V19.4c0-.3.2-.4.6-.6.4-.2.8-.2 1.2-.2.3 0 .6 0 .9.1l.1-.2c.1-.1.1-.2.1-.4v-.2c0-.7-.3-1.2-.8-1.3v.3l-.8 1.3c-.5-.2-1-.3-1.4-.3zm-.4-4.5V13c0-1 0-2 .1-2.9.1-1 .3-1.9.7-2.9.2-.3.5-.6.8-.8.3-.2.5-.6.5-1-.8 0-1.4.2-1.8.6-.4.4-.6.9-.8 1.5-.1.6-.2 1.2-.2 1.9v3.5l.1.6h.6zM44.8 38c-.3 0-.6 0-.8-.1-.7.6-1.5 1.3-2.3 2-.8.7-1.5 1.4-2.2 2.2l.8.8h.5c.6-.7 1.4-1.4 2.2-2.1l2.3-2.1c-.1-.1-.1-.2-.2-.4l-.3-.3zM41 20.6V32c0 .3.1.6.2 1.1.2.4.3.8.5 1v-9.8c0-.5 0-1 .1-1.6.1-.5.1-1 0-1.5 0-.5-.1-.9-.3-1.2-.2-.3-.5-.6-1-.6.3.2.4.5.5 1.2zm13.4 16.1c-.4 0-.4.1-.6-.3-.7 1-1.5 2-2.4 3.1-.8 1-1.6 1.8-2.2 2.3.1.1-.1-.1 0 .1.2.3.4.6.6.8l.2.1c.2.1.6-.2 1.2-.8.6-.6 1.3-1.2 1.9-2 .7-.8 1.2-1.6 1.7-2.4.5-.8.8-1.3.8-1.6-.3 0-.6.1-.7.4 0 .1-.2.3-.5.3zm-1.5-4.4v-1.5-9.1c0-.4.2-.8.6-1.4l1.2-1.8-.6-.1-1.2.9h-.2c-.2 0-.3.1-.4.2-.1.1-.1.2-.1.3v12c0 .9.1 1.4.2 1.6.4-.2.5-.6.5-1.1zm68.7 5.2c-.3.4-.8.6-1.4.6-.4 0-.8.2-1.3.5s-1 .6-1.6 1.1c-.5.4-1 .8-1.6 1.3l-1.3 1.3c.3.3.8.5 1.3.7.3 0 .7-.2 1.3-.7.6-.4 1.2-.9 1.9-1.4.7-.5 1.3-1 1.8-1.5.6-.5.9-.8 1-.9.3-.2.7-.6 1.1-1 .4-.5.7-.7.7-.8v-.2h-.6c-.5.3-.9.6-1.3 1zm-6.4-9.4c.1-.1.2-.3.3-.4v-4.6c0-.7 0-1.3.1-1.7 0-.1-.1-.2-.2-.4s-.2-.3-.3-.4c-.1-.1-.1-.2-.2-.2s-.1.1-.1.3v6.8l.1 1 .3-.4zm7.9-8c0 1.7-.4 3.2-1.2 4.6-.8 1.3-1.7 2.6-2.8 3.7-.3.7-.6 1.4-1.2 2.2-.5.8-1.1 1.2-1.7 1.2-.3 0-.5 0-.6.1l-.3.3c.1.6.3.9.5 1 .3.1.5 0 .8-.2.3-.2.6-.5.9-.8.3-.4.7-.7.9-.9 1.3-1.3 2.5-2.6 3.6-4.1 1.1-1.5 1.7-3.2 1.7-5 0-1.4-.3-2.5-.8-3.5.1.3.2.9.2 1.4zM32.5 33.9c-.3.2-.5.4-.8.7l-.8.8-.5.5c-1.8 1.9-3.9 3.3-6.1 4.2-2.3.9-4.6 1.3-7.1 1.3-.9 0-1.8 0-2.5-.1-.8-.1-1.5-.2-2.2-.4.9.3 1.8.6 2.6.8 1.2.3 2.5.4 4 .4 2.4 0 4.6-.4 6.7-1.3 2.2-.9 4.1-2.2 5.7-4 .3-.4.7-.9 1.2-1.5s.8-1.2.8-1.7H33s-.2.1-.5.3zM16.8 10.5c.1-.2.4-.4.7-.8-.1-.1-.3-.2-.4-.3-.1-.1-.2-.2-.3-.2-.3.3-.4.4-.6.5l-.3.3c0 .5.3 1.1.7 1.7 0-.7 0-1.1.2-1.2zm13.7-2.6c-.8.9-1.6 1.7-2.5 2.4-.9.7-1.9 1.1-3 1.1v21c0 .7.1 1.3.1 1.6.4.2.6.1.6.1v-1.3-1.4-4.9V13c0-.2.1-.3.2-.5l.3-.4c1.7-.4 3.1-1.1 4.3-2.2 1.3-1.1 2.3-2.4 3.1-3.9l.5-.8c.2-.3.2-.6.2-.9-.5 0-1.1.4-1.8 1.1l-2 2.5zM9.6 13.2c.1-.9.4-1.6.7-2-.7.9-1.1 2-1.4 3.3-.2 1.3-.4 2.5-.4 3.8 0 .6 0 1.2.1 2l.3 2.4c.1.8.3 1.6.5 2.5.2.8.5 1.5.8 2.1l-.2-.9c-.2-1.1-.4-2.3-.5-3.4-.1-1.1-.1-2.1-.1-2.8 0-.9.1-1.9.2-2.9l-.1-.7v-.8c-.1-.9 0-1.8.1-2.6zM3.3 37.6c-.3.6-.5 1.2-.6 1.6 0 .3-.1.5-.1.8l-.1.7c.2 1 1.2 2.1 1.4 2.4v-.7c0-.7.1-1.4.2-2.1.2-.7.5-1.3.9-1.9.4-.4.5-.6.6-.7l-1.4-1.6c-.2.4-.6.9-.9 1.5zm15.9-3.4c.5-.5.9-1 1.3-1.6.4-.6.7-1.2 1.1-1.8l.4-.8v-3.7c-.3 1.1-.8 2.1-1.4 3.1-.6 1-1 2-1.3 3-.1.3-.4.5-.8.5-.2 0-.4.1-.6.4-.3.3-.4.4-.4.5.6.1 1.2.3 1.7.4zm211-30.7c0 .6.3 1.1.8 1.6l.1-.2c.2-.5.4-.9.7-1.2.3-.3.4-.7.4-1.3-.3 0-.7.1-1.2.2-.5.2-.8.5-.8.9zm14 15.2c.1.5.1.9.1 1.4v10.7c0 .7-.2 1.4-.5 2.1-.3.7-.7 1.4-1.1 2-.5.6-1 1.2-1.6 1.7-.5.5-1 .9-1.5 1.2-1 .6-2 1.3-3 1.9-.9.6-1.9 1.5-2.9 2.5.2.2.3.3.5.4.2.1.3.3.4.4h.3c.9-1 1.8-1.8 2.8-2.5 1-.7 2-1.3 3.1-2 .4-.3.9-.6 1.4-1 .5-.5 1-1 1.4-1.5.4-.6.7-1.1 1-1.7.3-.6.4-1.2.4-1.7V22c0-1.2-.2-2.3-.8-3.3zm-10.4.3c0-.4-.1-.7-.2-.9-.1-.2-.3-.3-.5-.5v12.8c0 .5.2 1.1.7 1.7V19zm-11.6 2.3v9.5c0 .5-.1 1-.3 1.6-.2.6-.4 1.1-.8 1.6-.3.5-.7 1-1.1 1.4-.4.4-.8.8-1.1 1l-4.8 3c-.2.1-.4.3-.7.6-.2.3-.5.6-.7.9-.2.3-.4.6-.5.8-.1.3-.1.5.1.7.3.3.5.4.7.4.1 0 .3-.1.5-.4.3-.3.5-.6.8-.9l.8-.9c.2-.3.5-.4.7-.4l4.5-2.8c.6-.4 1.2-1.1 1.8-2 .6-.9.9-1.8.9-2.6V24c0-1.1-.3-2-.8-2.9v.2zm-10.3 7V23v-2.4c0-.4-.1-.7-.2-.8-.1-.2-.3-.3-.5-.5V29.6c0 .3.1.6.2 1 .2.3.3.6.5.8V31v-2.7zm-10.4-7c0 .2.1.4.1.6v8.9c0 .5-.1 1-.3 1.6-.2.6-.4 1.1-.8 1.6-.3.5-.7 1-1.1 1.4-.4.4-.8.8-1.1 1l-4.8 3c-.2.1-.4.3-.7.6-.3.3-.5.6-.7.9-.2.3-.4.6-.5.8-.1.3-.1.5.1.7.3.3.5.4.7.4.1 0 .3-.1.5-.4.3-.3.5-.6.8-.9l.8-.9c.3-.3.5-.4.7-.4l4.5-2.8c.6-.4 1.2-1.1 1.8-2 .6-.9.9-1.8.9-2.6V24c0-1.1-.3-2-.8-2.9v.2zm-10.3 7c0-.7 0-1.3-.1-2V23c0-.4.1-.8.1-1.2v-1.2c0-.4-.1-.7-.2-.8-.1-.2-.3-.3-.5-.5V29.6c0 .3.1.6.2 1 .2.3.3.6.5.8V31v-2.7zm-53.1-14.8c.8-.1 1.7-.1 2.5-.1.6 0 1.1 0 1.7.1-.9-.6-2.1-.8-3.5-.8h-1.3l-1.2.1-1.3.1h-2.1c-.4-.1-.7-.1-.9-.1l.8.4c1 .3 1.9.4 2.9.4.7 0 1.6 0 2.4-.1zm38.1-1.2v-.6c0-1 .2-1.9.7-2.8.4-.8 1-1.6 1.6-2.4v-.6c-.4 0-.8.2-1.3.5-.4.4-.8.7-1.1 1.1l-.4.5c-.1.2-.2.4-.3.8v.6c0 .5.1 1 .2 1.5.2.5.4 1 .6 1.4zm-32.7 17.9h.7c.6 0 1.2 0 1.7.1s1-.1 1.6-.4c1-.6 2-1.3 2.8-2.2.8-.9 1.5-1.9 2-3 .6-1.1 1-2.3 1.3-3.5.3-1.2.5-2.4.5-3.6 0-.8.3-1.6.1-2.3-.2-.7-.1-1.4-.1-2.2 0-.5-.1-.7-.2-1.4-.1-1-1.5-2.1-1.5-2.1l.4 1.5c0 .7.1 1.4.2 2.2.1.3.1.7.1 1.1.1.4.1.8.1 1.3 0 1.6-.2 3.2-.7 4.8-.5 1.6-1.2 3.1-2.1 4.4-.9 1.3-2 2.5-3.3 3.5-1.3.9-2.7 1.6-4.4 1.8h.8zm9.4 7.3c-.6.7-1.1 1.4-1.6 2.1-.5.8-1 1.4-1.3 2 .2.5.3.6.5.8.1.2.3.2.4.2.2 0 .4-.2.7-.7.4-.4.8-.9 1.2-1.5l1.2-1.6c.4-.5.7-.8.8-.9 1-1 2.1-1.9 3.3-2.9-.2-.3-.3-.4-.4-.4h-.3l-.3.3c-.1.1-.3.1-.5.1-.5 0-1.1.2-1.7.7-.8.6-1.4 1.2-2 1.8zm-11.7-10.9c.5-.1 1-.2 1.4-.5.4-.3.8-.5 1.1-.9.1-.4.1-.7.1-.9 0-.2 0-.4-.1-.7-.1-.3-.1-.6-.2-.8-.1-.2-.1-.4-.2-.5-.1 1.2-.3 2-.6 2.7-.5.7-.9 1.2-1.5 1.6zm39.5-4.4v1.2c.1.4.1.8.1 1 0 2.4-.5 4.4-1.4 5.9-.9 1.5-2.1 2.8-3.5 3.9l-.5.8c-.2.3-.8.5-1 .7-.6.7-1 1.1-1.8 1.1l-.3-.1-.7.4-1.4.8c-.7.4-1.3.8-2 1.3s-1.3.9-1.7 1.4c-.5.5-.6.8-.4 1.1l.5.5h.4c1.4-1.3 3-2.5 4.7-3.4 1.7-1 3.3-2 4.8-3.1s2.7-2.3 3.7-3.8 1.5-3.4 1.5-5.7c0-1-.1-2-.4-3-.4-.6-.5-1-.6-1zm-36.9 15.3c-1.1-.6-2.1-.8-3.2-.8-1.2 0-2.2.3-3.2.9-.9.6-1.5 1.6-1.8 2.9.1.8.3 1.4.7 1.9V42c0-.8.2-1.4.6-2 .4-.6.9-1 1.5-1.4.6-.4 1.3-.7 2-.9.7-.2 1.4-.3 2-.3.5-.1.9 0 1.4.1zm14.8 6.6l-.8.8c-.2.3-.4.4-.4.5-.6.5-1.2.9-1.8 1.3-2.9 2.3-6.3 3.5-9.9 3.5-.7 0-1.5-.1-2.3-.2-.8-.1-1.5-.2-2.3-.4.4.2.8.3 1.1.4l1.2.4c1.5.3 2.8.5 4.1.5 2.2 0 4.2-.5 6.2-1.4 2-.9 3.7-2.2 5.2-4 .3-.4.7-.8.9-1.2.3-.4.5-.8.5-1.4-.4 0-.6.1-.8.3-.3.4-.6.6-.9.9zm7.7-15.8l-.1-.9-.1-1.4v-1.6c0-2.1.1-6.2.3-8.7.1-2.5.4-5.1.7-7.7 0-.8-.2-1-.5-1s-.5.6-.7 1.9c-.2 1.2-.3 2.6-.3 4.3-.1 1.6-.1 3.2-.1 4.7v4.6c0 1.2.1 2.3.2 3.4s.4 2.1.8 3.1c-.1-.1-.1-.4-.2-.7z"/><path id="XMLID_1061_" class="st1" d="M30.6 4.1c-.3.4-.7.7-1.2 1-.4.3-1 .5-1.8.5-1.4 0-2.5-.3-3.5-.8-.9-.6-1.6-1.5-1.9-2.9h-.7c-.1 0-.2.1-.3.2-1.1 1.2-2.2 2.2-3.5 3.1-1.2.9-2.4 1.8-3.4 2.8-1 .9-1.9 2-2.6 3.2-.7 1.2-1 2.7-1 4.6 0 1.2.2 2.3.5 3.3.3.9.8 1.8 1.4 2.7.6.8 1.2 1.7 1.9 2.5s1.4 1.6 2.1 2.6c.3.4.6.8.8 1.3.2.4.3.9.3 1.5 0 .3 0 .6-.1.9-.1.3-.4.5-.8.5h-.7l-.6-.2-.6-.2c-.2-.1-.3-.1-.3-.1-.6-.1-1.3-.2-1.9-.1-.6 0-1.1-.1-1.6-.4-.7-.5-1.3-1.2-1.7-2.2-.4-1-.8-2-1.1-3.2-.3-1.1-.4-2.2-.5-3.3-.1-1.1-.1-2.1-.1-2.9 0-3 .7-5.7 2.1-8 1.4-2.3 3.4-4.1 6.2-5.4.1-.3 0-.4-.2-.4h-.3c-1 0-2.1.3-3.3.8-1.3.6-2.5 1.3-3.7 2.1C6.9 8.1 5.8 9 4.8 10c-1 .9-1.7 1.7-2.2 2.4-1 1.5-1.6 3.1-2 4.7-.4 1.7-.6 3.3-.6 5.1 0 2 .3 3.9.9 5.6.6 1.7 1.4 3.5 2.3 5.3 0 .4-.2.6-.5.9-.3.3-.6.6-.7.8-.5.8-.9 1.6-1.1 2.4-.2.8-.3 1.7-.3 2.7 0 1.5.4 2.9 1.1 4 .8 1.1 1.7 2 2.8 2.7 1.2.7 2.4 1.2 3.8 1.6 1.4.3 2.8.5 4 .5 2.2 0 4.3-.4 6.3-1.3 2-.8 3.7-2.1 5.1-3.8v-.5c-.2 0-.5.1-.8.3l-1 .7c-.4.3-.8.5-1.1.8-.3.3-.6.4-.8.5-1.2.6-2.4 1-3.8 1.1-1.2.4-2.5.5-3.9.5-1.1 0-2.4-.1-3.7-.4-1.3-.3-2.5-.7-3.6-1.3-1.1-.6-2-1.4-2.8-2.4-.7-.9-1.1-2.1-1.1-3.5 0-.4 0-.8.1-1.4.1-.6.3-1.2.5-1.7.2-.6.5-1 .8-1.4.3-.4.6-.6.9-.6H4c1 .9 2 1.7 3 2.5 1 .7 2 1.3 3 1.8s2.1.9 3.2 1.2c1.2.3 2.5.4 4 .4 2.4 0 4.6-.4 6.7-1.3 2.2-.9 4.1-2.2 5.7-4 .3-.4.7-.9 1.2-1.5s.8-1.2.8-1.7h-.5l-1.4 1.2c-.5.4-1 .8-1.6 1.2-.5.4-1.1.7-1.7.9-.6.2-1.2.4-1.8.4-.3 0-.5-.5-.7-1.6-.1-1.1-.2-2.4-.2-3.9V11.1c0-.2.1-.3.2-.5l.3-.4c1.7-.4 3.1-1.1 4.3-2.2 1.4-1 2.5-2.3 3.3-3.8l.5-.8c.2-.3.2-.6.2-.9-.4 0-.7.2-1 .5l-.9 1.1zM23.2 35c0 .2-.1.4-.3.6h-1.4c-1.8 0-3.5-.4-5.2-1.1-1.7-.8-3.1-1.9-4.2-3.2.2-.3.3-.3.5-.3.7 0 1.4.2 2 .7.6.5 1.2 1 1.6 1.5.8 0 1.3-.4 1.9-1.2.6-.8 1.1-1.8 1.6-2.9.5-1.1.9-2.3 1.2-3.4.3-1.2.5-2.1.5-2.7 0-.9-.2-1.8-.5-2.6-.3-.9-.7-1.6-1.2-2.4-.5-.8-1.1-1.6-1.7-2.4-.6-.8-1.2-1.6-1.8-2.5-.4-.5-.7-1-1-1.5-.3-.5-.4-1.1-.4-1.8 0-.6.1-1 .2-1.2l.9-.9c.6 0 1.1.3 1.8.9l1 .7.7.2c.5.1 1 .3 1.6.5.6.2 1.1.4 1.6.7.5.2.7.4.7.5V35zm29.3-.2c-.5 0-.8-.3-1-.8-.2-.6-.3-1.3-.4-2.2-.1-.9-.1-1.9-.1-2.9s.1-2 .1-2.9v-6.2c0-.3.2-.8.6-1.4l1.2-1.8-.6-.1-1.3 1h-.2c-.2 0-.5-.2-1-.7-.5-.5-1.1-1.1-1.7-1.6-.6-.6-1.3-1.1-2-1.6s-1.3-.8-1.8-.8c-.2 0-.4.1-.6.3l-.7.7c-.2.3-.4.5-.6.8-.2.2-.3.4-.5.6-1 .9-2.1 1.7-3.1 2.3-1 .6-1.9 1.2-2.7 1.8-.8.7-1.4 1.5-1.9 2.4-.5.9-.7 2.2-.7 3.9V29.8l.1 2.4c0 .7.1 1.2.1 1.5.1.6.3 1.4.6 2.2.3.8.7 1.5 1.1 2l3.1 3.2h.5c.8-.9 1.7-1.8 2.7-2.7l2.9-2.4h.2c.2 0 .4.2.7.7.3.5.7 1 1 1.6.4.6.7 1.2 1 1.7.3.5.5.8.6.8l.2.1c.2.1.6-.1 1.2-.7s1.3-1.3 1.9-2.1c.7-.8 1.2-1.6 1.7-2.4.5-.8.8-1.3.8-1.6-.3 0-.5.1-.7.4-.2.2-.4.3-.7.3zm-7.6-2.1c0 .3-.1.6-.1 1-.1.4-.2.8-.4 1.1-.2.3-.4.6-.7.9-.2.3-.6.4-.9.4-.5 0-.9-.1-1.2-.4-.3-.3-.6-.6-.9-1-.2-.4-.4-.8-.6-1.3-.1-.5-.2-.9-.3-1.2V21v-1.3c.1-.4.1-.7.2-1 .1-.3.2-.4.4-.4.5 0 .9.2 1.4.5.5.3.9.8 1.3 1.3s.8 1 1 1.6c.3.6.5 1.1.6 1.5v7.1l.1 1.7v.7zm28.5-6.6c-.3-.6-.8-1.1-1.4-1.5-.6-.4-1.3-.6-2.2-.6-.7 0-1.2.1-1.7.4-.5.3-.9.6-1.4.9l-1.2.9c-.4.3-.8.4-1.3.4-.3 0-.7-.2-.9-.6-.3-.4-.4-.8-.4-1.1v-5.3c0-.2.2-.3.5-.1.3.1.7.3 1.2.6.5.2.9.4 1.4.7.5.2.8.3 1.1.3h.1c.9 0 1.6-.2 2.4-.7.8-.5 1.5-1.1 2-1.7.6-.7 1.1-1.5 1.4-2.4.3-.8.5-1.6.5-2.4-.3 0-.6.1-.8.4-.2.2-.4.5-.6.8-.2.3-.4.6-.8.8-.3.3-.7.4-1.3.4-.4 0-.8-.1-1.1-.3l-.8-.8c-.2-.3-.4-.6-.5-.8-.2-.3-.3-.4-.5-.4-.8.3-1.5.8-2.3 1.5-.7.6-1.4 1.1-2.1 1.5-.8.5-1.7 1-2.5 1.5s-1.6 1-2.2 1.6c-.6.6-1.1 1.2-1.6 2-.4.8-.6 1.7-.6 2.7 0 .6.1 1.2.3 1.8.2.6.5 1.1.9 1.6s.8.9 1.3 1.2c.5.3 1.1.5 1.7.5.6 0 1.2-.1 1.7-.3.5-.3 1-.5 1.5-.8.5-.3.9-.6 1.3-.8.4-.3.8-.4 1.2-.4.5 0 .9.2 1.3.6.4.4.7.8.7 1.3V36l-.2.2c-.8-.7-1.6-1.2-2.4-1.4-.8-.2-1.8-.3-2.8-.3-.7 0-1.4.2-2.2.6-.8.4-1.6.9-2.4 1.5-.7.6-1.3 1.3-1.8 2s-.8 1.4-.8 2.1h.2c.2 0 .4-.1.6-.3.3-.2.5-.5.8-.7.3-.3.6-.5.9-.8.3-.2.7-.3 1-.3 1.1 0 1.9.3 2.5.8.6.5 1.4 1.2 2.2 2h.2c.1 0 .3-.1.5-.2.2-.2.4-.3.7-.5.3-.2.5-.4.7-.5.2-.2.4-.3.5-.4.4-.4 1-.8 1.7-1.1.8-.3 1.6-.7 2.4-1 .8-.4 1.6-.8 2.2-1.3.7-.5 1.2-1 1.5-1.7.3-.6.4-1.2.4-1.8 0-.6.1-1.3.1-2v-.2c0-.8-.1-1.5-.2-2.3 0-1-.3-1.7-.6-2.3zm17.2 9.4c-.1 0-.3.2-.6.5s-.6.5-.8.5c-.5 0-1-.4-1.5-1.1-.5-.8-.7-1.4-.7-1.9v-16c0-.3.2-.4.6-.6.4-.2.8-.2 1.2-.2.3 0 .6 0 .9.1l.1-.2c.1-.1.1-.2.1-.4V16c0-.8-.2-1.2-.7-1.3-.4-.1-.9-.1-1.4-.1-.4 0-.7-.1-.9-.3-.2-.3-.3-.5-.4-.9-.1-.4-.1-.8-.1-1.1v-1c0-1 0-2 .1-2.9.1-1 .3-1.9.7-2.9.2-.3.5-.6.8-.8.3-.2.5-.6.5-1-.4 0-.9.1-1.3.3-.4.2-.8.4-1.2.7-1 .6-1.9 1.3-2.5 1.9-.6.6-1.2 1.3-1.6 2-.4.7-.7 1.5-1 2.4-.2.8-.5 1.8-.8 3 0 .2 0 .3-.1.5s-.1.3-.2.3h-2c-.1 0-.2.1-.2.4 0 .3-.1.5-.1.7v1c.1.2.3.3.6.4.3.1.5.1.8.2.2 0 .5.1.7.1.2 0 .3.1.4.2v.7c0 .3.1.6.1 1 0 .3.1.7.1 1 0 .3.1.5.1.7v13.3c-.1.2-.2.4-.2.6 0 .2-.1.4-.1.7 0 .4-.1.7-.3 1-.2.3-.4.5-.6.8-.2.3-.4.5-.6.8-.2.3-.3.6-.3 1h.6l1.5-1.6h.2c.4.3.8.7 1.2 1.2.4.5.8.9 1.1 1.4.3.4.7.8 1 1.1.3.3.6.5.8.5h.4c.1 0 .5-.3 1.1-.8.6-.5 1.3-1.1 2-1.8s1.4-1.3 2-1.9c.6-.6.9-1 1-1.2v-.2l-.2-.1h-.3zm15.7-32c-1-.7-2.1-1-3.3-1-.8 0-1.7.2-2.7.5-.9.3-1.7.8-2.5 1.3-.8.6-1.4 1.2-1.9 2s-.7 1.7-.7 2.6v25.3c0 .4-.1.8-.4 1.1-.2.3-.5.7-.8 1-.3.3-.5.6-.8.9-.3.3-.4.6-.4.9v.1c0 .1.1.1.2.2h.1l1.6-1.6h.2c.3 0 .5.1.7.3.2.2.3.4.5.7.2.3.3.6.5.8.2.3.3.5.5.7.1.1.4.4.9.8s.8.6.9.8h.9c.1 0 .2-.1.4-.4.2-.2.3-.4.3-.5.5-.3 1-.7 1.6-1.1.6-.4 1.2-.8 1.7-1.2.5-.4 1-.8 1.3-1.1.4-.3.6-.6.6-.8v-.3c-.3 0-.7.1-.9.4-.2.2-.5.3-.8.3h-.2c-.3 0-.6-.2-.9-.6-.3-.4-.5-.8-.8-1.3-.2-.5-.4-.9-.5-1.4-.1-.5-.2-.8-.2-1V7.4c0-.7.1-1.3.2-1.9.2-.6.4-1 .7-1.4.3-.4.8-.6 1.4-.6.2 0 .2.1.1.3-.1.2-.2.4-.3.8-.1.3-.3.6-.4.9-.2.3-.2.6-.2.8 0 .8.2 1.4.7 1.9.4.5 1 .7 1.8.7.9 0 1.5-.2 1.9-.8.4-.5.6-1.2.6-2-.1-1-.6-1.9-1.6-2.6zm10.3 25.8c.9-.8 1.8-1.7 2.5-2.7.8-.9 1.4-1.9 1.9-3s.8-2.3.8-3.5c0-.5-.1-1.1-.3-1.9-.2-.8-.5-1.6-.9-2.4-.4-.8-.8-1.5-1.3-2-.5-.6-1-.9-1.6-.9-.9.8-1.9 1.7-3 2.4l-3.3 2.4c-1 .9-1.9 1.8-2.7 2.8-.8 1-1.1 2.1-1.1 3.4v7.9c0 .8.2 1.6.5 2.6.3.9.8 1.9 1.4 2.8.6.9 1.3 1.7 2 2.4.8.7 1.5 1.2 2.3 1.5.3 0 .7-.2 1.3-.6.6-.4 1.2-.9 1.9-1.5.7-.5 1.3-1 1.8-1.5.6-.5.9-.8 1-.9.3-.2.7-.6 1.1-1 .4-.5.7-.7.7-.8v-.2h-.6c-.5.3-.9.7-1.3 1.1-.3.4-.8.6-1.4.6-.3 0-.6-.2-1.1-.5-.4-.3-.9-.7-1.4-1.1-.4-.4-.8-.9-1.2-1.4-.3-.5-.5-.9-.5-1.3v-.3c.8-.8 1.6-1.6 2.5-2.4zm-2.7.4c-.1-1-.2-1.9-.2-2.7 0-.8-.1-1.6-.1-2.5v-1.8-1.1-1.5c0-.5.1-.9.2-1.2.1-.4.3-.6.5-.6.6 0 1.1.3 1.5.8.4.6.7 1.2 1 2 .3.7.5 1.4.6 2.2.2.7.2 1.2.2 1.5 0 .4-.1.8-.3 1.4-.2.6-.4 1.1-.8 1.7-.3.5-.7 1-1.1 1.4-.4.4-.8.6-1.1.6-.1-.1-.3-.1-.4-.2zm128.4-13c-.6-1-1.4-2-2.3-2.9-.9-.9-1.8-1.7-2.9-2.4-1-.7-1.9-1.3-2.8-1.9-.4-.3-1.1-.9-1.7-1.2-.6-.3-1.2-.9-1.7-1.3-.6-.4-.9-1-1.3-1.5-.4-.6-.6-1.2-.6-2 0-.4.1-.7.2-1 .2-.3.3-.6.5-.8.2-.2.3-.5.4-.7.1-.2.2-.5.2-.9-.7 0-1.4.3-2 .8-.6.5-1.1 1.1-1.5 1.9-.4.8-.7 1.6-.9 2.5-.2.9-.3 1.7-.3 2.5 0 2.2.5 3.8 1.5 4.7.9.9 2.1 1.7 3.4 2.5.2.1.2.2.2.5 0 .1-.3.4-.8.8s-1.1 1-1.8 1.6c-.6.7-1.2 1.4-1.8 2.3-.5.9-.8 1.8-.8 2.8v8.6c0 1.2.2 2.2.8 3.2.5.9 1.1 1.7 1.8 2.5.7.7 1.5 1.4 2.4 2.1.9.6 1.7 1.3 2.4 2h.3c.9-1 1.8-1.8 2.8-2.5 1-.7 2-1.3 3.1-2 .4-.3.9-.6 1.4-1 .5-.5 1-1 1.4-1.5.4-.6.7-1.1 1-1.7.3-.6.4-1.2.4-1.7V20.1c-.1-1.2-.4-2.4-1-3.4zm-5.2 18.9c-.3.2-.4.3-.5.3-.4 0-.9-.2-1.4-.7-.5-.4-1-.9-1.6-1.5-.5-.6-.9-1.2-1.2-1.8-.3-.6-.5-1.1-.5-1.5V17.1c0-.5.2-.8.7-.8.4 0 .8.2 1.3.7.5.4 1 1 1.5 1.6.5.6.9 1.3 1.2 1.9.3.7.5 1.2.5 1.6v13.5zm-18.6-19.1c-.7-.7-1.5-1.4-2.4-2l-2.3-1.7h-.2c-1.5 1-2.7 1.9-3.8 2.6-1 .7-1.7 1.2-2.1 1.5-1.4 1-2.4 2.2-3 3.5-.6 1.4-.8 2.9-.8 4.6v3.3c.1 1 .1 2.2.2 3.5.2.9.5 1.9.9 3 .3 1 .9 1.8 1.8 2.4.4.3.8.6 1.3 1l1.3 1.2 1.1.9c.3.2.6.4.7.4.1 0 .2-.1.5-.4.3-.3.5-.6.8-.9l.8-.9c.3-.3.5-.4.7-.4l4.5-2.8c.6-.4 1.2-1.1 1.8-2 .6-.9.9-1.8.9-2.6v-8.9c0-1.1-.2-2-.8-2.9-.6-.9-1.2-1.7-1.9-2.4zm-3.4 18.7c0 .1 0 .2-.1.2h-.2c-.5 0-1.1-.2-1.6-.7-.5-.4-1-1-1.4-1.6-.4-.6-.8-1.3-1.1-1.9-.3-.7-.5-1.2-.6-1.7V26.4v-5.3-3.3l.4-.1c.3-.1.7.1 1.2.5s1 .9 1.5 1.5.9 1.1 1.2 1.7c.4.6.6 1 .7 1.2v.9c.1.5.1.8.1.9v10.8zm-17.3-18.7c-.7-.7-1.5-1.4-2.4-2l-2.3-1.7h-.2c-1.5 1-2.7 1.9-3.8 2.6-1 .7-1.7 1.2-2.1 1.5-1.4 1-2.4 2.2-3 3.5-.6 1.4-.8 2.9-.8 4.6v3.3c.1 1 .1 2.2.2 3.5.3.9.6 1.9.9 3 .3 1 .9 1.8 1.8 2.4.4.3.8.6 1.3 1l1.3 1.2 1.1.9c.3.2.6.4.7.4.1 0 .2-.1.5-.4.3-.3.5-.6.8-.9l.8-.9c.3-.3.5-.4.7-.4l4.5-2.8c.6-.4 1.2-1.1 1.8-2 .6-.9.9-1.8.9-2.6v-8.9c0-1.1-.3-2-.8-2.9-.6-.9-1.2-1.7-1.9-2.4zm-3.3 18.7c0 .1 0 .2-.1.2h-.2c-.5 0-1.1-.2-1.6-.7-.5-.4-1-1-1.4-1.6-.4-.6-.8-1.3-1.1-1.9-.3-.7-.5-1.2-.6-1.7l-.1-1.2v-1.9-5.3-2.4l.1-.9.4-.1c.3-.1.7.1 1.2.5s1 .9 1.5 1.5.9 1.1 1.2 1.7c.4.6.6 1 .7 1.2v.9c.1.5.1.8.1.9v10.8zm-15.9-17.1c-.4-.6-.8-1.3-1.3-1.9-.5-.7-.9-1.4-1.4-2.1-.4-.7-.8-1.5-1.1-2.3-.3-.8-.4-1.6-.4-2.5 0-1 .2-1.9.7-2.8.4-.8 1-1.6 1.6-2.4v-.7c-.4 0-.8.2-1.3.5-.4.4-.8.7-1.1 1.1l-.5.6c-.6.7-1.2 1.4-1.7 1.9-.5.6-1 1.1-1.5 1.7-.4.6-.8 1.2-1.2 1.9-.3.7-.6 1.5-.9 2.5l-.2 2.6c0 1.6.4 2.9.7 4.3.3 1.4.8 2.2 1.6 3.2.8 1.1 1.7 2.1 2.5 3.2.9 1 1.3 2.3 1.3 3.7v1.2c-.3.7-.7 1.3-1.4 2-.6.7-1.4 1-2.2 1-.2 0-.6-.2-1.2-.7l-.8-.6-.3-.2c-1.1-.9-1.8-1.7-2.3-2.5-.5-.9-.9-1.7-1.2-2.6-.3-.9-.5-1.8-.6-2.7-.1-.9-.1-1.9-.1-3 0-2.1.1-6.9.2-9.4s.4-5.1.7-7.7c0-.8-.2-1-.5-1-.5 0-1.1.2-1.7.7-.6.5-1.1.8-1.4 1-1.2.9-2.1 2-2.8 3.3-.7 1.3-1.2 2.7-1.5 4.3-.3 1.5-.5 3.2-.5 4.9-.1 1.7.3 4.4.3 5.6 0 .9 0 1.9.1 2.8.1.9.1 1.9.1 2.8 0 .2-.1.5-.3.9-.2.3-.4.7-.7 1l-.9.9c-.3.3-.6.4-.8.4-.3 0-.8-.2-1.3-.6-.5-.4-.9-.8-1.2-.9-.9-.5-1.8-.9-2.7-1.1-.9-.2-1.9-.3-3-.3-1.3 0-2.8.2-4.3.7-1.5.4-2.9 1.1-4.1 1.9-1.3.8-2.3 1.8-3.2 3.1-.8 1.2-1.2 2.6-1.2 4.2 0 1.5.4 2.9 1.1 4 .8 1.1 1.8 2.1 2.9 2.8 1.2.7 2.5 1.3 3.9 1.6 1.4.3 2.8.5 4 .5 2.2 0 4.2-.5 6.2-1.4 2-.9 3.7-2.2 5.2-4 .3-.4.7-.8.9-1.2.3-.4.5-.8.5-1.4-1.2 1-2.1 1.8-2.9 2.5-.8.7-1.7 1.2-2.6 1.6-.9.4-1.9.8-2.9.9-1 .2-2.3.3-3.7.3-1 0-2.2-.1-3.6-.2-1.3-.1-2.7-.4-3.9-.8-1.2-.4-2.3-1-3.1-1.9-.8-.9-1.3-2-1.3-3.5 0-.8.2-1.4.6-2 .4-.6.9-1 1.5-1.4.6-.4 1.3-.7 2-.9.7-.2 1.4-.3 2-.3 1.4 0 2.7.3 3.9 1 1.2.7 2.3 1.5 3.2 2.5.2.2.4.6.6 1 .2.5.4.7.8.8 1.2-1.8 2.4-3.4 3.9-4.7 1.5-1.3 3-2.7 4.7-4 .2 0 .4.2.7.6.3.4.5.8.8 1.3l.8 1.5c.3.5.6.8.8 1l2.4 2.4 1 1.4.5.4h.4c1.4-1.4 3-2.5 4.7-3.4 1.7-1 3.3-2 4.8-3.1s2.7-2.3 3.7-3.8 1.4-3.4 1.7-5.8c.1-1 .1-2.1-.2-3.3-.3-1.2-.4-1.9-1-2.9zm-42.4-6.5c.8-.1 1.7-.1 2.5-.1 2.6 0 4.6.8 5.8 2.3 1.3 1.5 1.9 3.6 1.9 6.2 0 .9-.1 1.8-.3 2.7-.2.9-.6 1.8-1 2.5-.5.8-1.1 1.4-1.8 1.9s-1.6.7-2.7.7H139c-.4 0-.7-.1-1.1-.2-.3-.1-.6-.2-.8-.4-.2-.2-.3-.5-.3-.8 1.4 0 2.6-.3 3.6-.8s1.5-1.6 1.5-3.2c0-1.1-.3-2-1-2.7-.7-.7-1.6-1.1-2.7-1.1s-1.9.3-2.5.8c-.6.5-1.1 1.3-1.6 2.2v1.2c0 .9.2 1.8.6 2.6.4.8.9 1.5 1.6 2 .7.5 1.4 1 2.2 1.3.8.3 1.7.5 2.6.5 1.7 0 3.3-.4 4.7-1.2 1.4-.8 2.6-1.9 3.5-3.2 1-1.3 1.7-2.7 2.2-4.3.5-1.6.8-3.2.8-4.8 0-.8-.1-1.5-.2-2.3-.2-.7-.2-1.5-.2-2.4l-.9-1.8s-.2-.1-.4-.3l-.5-.8-.6-.8c-.2-.3-.4-.4-.4-.4l-.8-.9-.9-1c-.9-.8-2-1.4-3.3-1.6-1.3-.3-2.5-.5-3.7-.5-1.1 0-2.1.1-3.1.2s-2 .3-3.1.7l-2.7.9c-.8.3-1.7.5-2.7.5-.4 0-.8-.1-1.3-.2s-.7-.5-.7-1.1l.1-.5c.1-.3.2-.8.2-.8 0-.3-.2-.5-.2-.5-.2 0-.5.1-.7.4-.2.2-.3.5-.4.8-.1.3-.2.6-.2.9V5c0 1.1.2 2.1.7 2.9.5.8 1.1 1.5 1.8 2.1.8.6 1.6 1 2.5 1.3 1 .3 1.9.4 2.9.4 1.1 0 1.9 0 2.7-.1z"/><path class="st2" d="M73.5 62.7c0 .3-.1.3-.6.3h-3.6c-.5 0-.5 0-.7-.2L64.8 59h-1.3v2.6h1.3c.5 0 .6 0 .6.3v.8c0 .3-.1.3-.6.3h-6.6c-.5 0-.6 0-.6-.3v-.8c0-.3.1-.3.6-.3h1.4v-6.9h-1.4c-.5 0-.6 0-.6-.3v-.8c0-.3.1-.3.6-.3h6.6c2.2 0 6.6.1 6.6 2.7 0 1.8-2.2 2.3-3.2 2.6l3.4 3h1.3c.5 0 .6 0 .6.3v.8zm-9.3-5.2c1.8 0 3.4-.1 3.4-1.4 0-1.2-1.6-1.3-3.1-1.3h-1v2.7h.7zM91.1 62.7c0 .3-.1.3-.6.3H79.3c-.5 0-.6 0-.6-.3v-.8c0-.3.1-.3.6-.3h1.4v-6.9h-1.4c-.5 0-.6 0-.6-.3v-.8c0-.3.1-.3.6-.3h11.3c.5 0 .6 0 .6.2v2.1c0 .3-.1.3-.6.3h-1.9c-.5 0-.6 0-.6-.3v-.9h-3.6V57h3.6c.5 0 .6 0 .6.3v.9c0 .3-.1.3-.6.3h-3.6v2.8h3.6v-1c0-.2.1-.3.6-.3h1.9c.5 0 .6 0 .6.3v2.4zM106.1 54.8c-.3-.1-1-.2-1.9-.2-1.3 0-2.6.3-2.6 1.1 0 1.1 3.3 1.3 5.8 2.2 1.4.5 2.4 1.3 2.4 2.4 0 1.8-2.5 3-6.1 3-2.1 0-5.8-.3-5.8-1v-2.1c0-.2.1-.2.5-.2h2.1c.4 0 .5 0 .5.2v1.3c.4.1 1.4.3 2.7.3 1.6 0 2.5-.4 2.5-1.3 0-1.3-2.9-1.4-5.8-2.3-1.5-.4-2.5-1-2.5-2.2 0-2 2.9-2.9 6.2-2.9 2 0 5 .4 5 .9v1.9c0 .2-.1.2-.5.2h-2.1c-.4 0-.5 0-.5-.2v-1.1zM128.1 62.7c0 .3-.1.3-.6.3h-11.3c-.5 0-.6 0-.6-.3v-.8c0-.3.1-.3.6-.3h1.4v-6.9h-1.4c-.5 0-.6 0-.6-.3v-.8c0-.3.1-.3.6-.3h11.3c.5 0 .6 0 .6.2v2.1c0 .3-.1.3-.6.3h-1.9c-.5 0-.6 0-.6-.3v-.9h-3.6V57h3.6c.5 0 .6 0 .6.3v.9c0 .3-.1.3-.6.3h-3.6v2.8h3.6v-1c0-.2.1-.3.6-.3h1.9c.5 0 .6 0 .6.3v2.4zM150.6 62.7c0 .3-.1.3-.6.3h-3.6c-.5 0-.5 0-.6-.2L142 59h-1.4v2.6h1.3c.5 0 .6 0 .6.3v.8c0 .3-.1.3-.6.3h-6.6c-.5 0-.6 0-.6-.3v-.8c0-.3.1-.3.6-.3h1.4v-6.9h-1.4c-.5 0-.6 0-.6-.3v-.8c0-.3.1-.3.6-.3h6.6c2.2 0 6.6.1 6.6 2.7 0 1.8-2.2 2.3-3.2 2.6l3.4 3h1.3c.5 0 .6 0 .6.3v.8zm-9.3-5.2c1.8 0 3.4-.1 3.4-1.4 0-1.2-1.6-1.3-3.1-1.3h-1v2.7h.7zM164.2 63c-.1.2-.1.2-.6.2h-2.3c-.5 0-.5 0-.6-.2l-4.5-8.3h-1.1c-.4 0-.5 0-.5-.2v-.9c0-.2.1-.2.5-.2h4.1c.4 0 .4 0 .5.2l3.2 6.5h.1l3.6-6.5c.1-.2.1-.2.5-.2h2.9c.4 0 .5 0 .5.2v.9c0 .2-.1.2-.5.2h-1.1l-4.7 8.3zM188.1 62.7c0 .3-.1.3-.6.3h-11.3c-.5 0-.6 0-.6-.3v-.8c0-.3.1-.3.6-.3h1.4v-6.9h-1.4c-.5 0-.6 0-.6-.3v-.8c0-.3.1-.3.6-.3h11.3c.5 0 .6 0 .6.2v2.1c0 .3-.1.3-.6.3h-1.9c-.5 0-.6 0-.6-.3v-.9h-3.6V57h3.6c.5 0 .6 0 .6.3v.9c0 .3-.1.3-.6.3h-3.6v2.8h3.6v-1c0-.2.1-.3.6-.3h1.9c.5 0 .6 0 .6.3v2.4z"/><g id="XMLID_3546_"><path id="XMLID_3550_" d="M246.5 8.9l1 1.4h-.9l-.9-1.3h-.8v1.3h-.7V6.5h1.7c.9 0 1.5.5 1.5 1.2s-.4 1-.9 1.2zm-.6-1.7h-.9v1.2h.9c.5 0 .8-.2.8-.6-.1-.4-.4-.6-.8-.6z"/><path id="XMLID_3547_" d="M245.7 4.9c-2 0-3.7 1.7-3.7 3.7s1.6 3.6 3.6 3.6 3.7-1.7 3.7-3.7-1.6-3.6-3.6-3.6zm-.1 6.7c-1.7 0-3.1-1.4-3.1-3.1 0-1.7 1.3-3.1 3.1-3.1 1.7 0 3.1 1.4 3.1 3.1 0 1.7-1.3 3.1-3.1 3.1z"/></g></svg>