<?xml version="1.0" encoding="utf-8"?>
<!-- Generator: Adobe Illustrator 19.2.0, SVG Export Plug-In . SVG Version: 6.00 Build 0)  -->
<svg version="1.1" id="Layer_1" xmlns="http://www.w3.org/2000/svg" xmlns:xlink="http://www.w3.org/1999/xlink" x="0px" y="0px"
	 viewBox="0 0 30.2 28.7" style="enable-background:new 0 0 30.2 28.7;" xml:space="preserve" class="cwr-svg-1star">
<style type="text/css">
	.st0{fill-rule:evenodd;clip-rule:evenodd;fill:#c7ba91}
</style>
<polygon id="XMLID_2401_" class="st0" points="30.2,51.3 29.8,51.7 29.8,51.1 30.2,51.1 "/>
<path id="XMLID_2399_" class="st0" d="M6,14.8v-1.6C4.5,14.1,5.8,14.6,6,14.8z"/>
<path id="XMLID_2398_" class="st0" d="M8.8,26.5L8.3,27c-0.1-0.3-0.3-0.5-0.3-0.8c0-0.6,0.7-0.5,0.7-1c0-0.6,0-0.4-0.3-0.7
	c-0.5,0.5-0.8,0.7-1,1v2.3l-0.8,0.5l-0.6,0.4l0-0.8l0.3-0.7l0.2-0.7l0.3-0.7l0.2-0.7l0.2-0.7l0.2-0.7l0.2-0.6
	c0.1,0.3,0.4,0.5,0.7,0.7v-2.5l-0.1-0.4l0.4-0.7l0.1-0.7l0.2-0.7l0.2-0.7L9,17.5l-0.7-0.3l-0.6-0.4l-0.6-0.4l-0.5-0.5L6,15.3L5.3,15
	l-0.5-0.6l-0.7-0.3l-0.6-0.5l-0.7-0.3l-0.6-0.5l-0.6-0.4L1.1,12l-0.5-0.5L0,11l0.8-0.1l0.7,0l0.7-0.1C2.3,11,2,11,2,11.5
	c0,0.6,0.1,0.6,0.7,0.8v-1.4L3,10.9l0.7-0.1l0.7-0.1l0.7,0.1c-0.1,0.9,0.2,1.2,0.7,1.4l0-1.4l0.7-0.1l0.7,0.1l0.7,0l0.7-0.1l0.7,0
	l0.7,0l0.7,0.1l0.5-0.4l0.3-0.7L12,9.1l0.3-0.7l0.1-0.7L12.7,7l0.3-0.7l0.2-0.7l0.3-0.7l0.2-0.7l0.2-0.7l0.3-0.7l0.2-0.7l0.2-0.7
	l0.3-0.7L15.1,0l0.3,0.7l0.3,0.7L16,2.1l0.1,0.7l0.3,0.7l0.2,0.7l0.2,0.7l0.3,0.7l0.2,0.7L17.5,7l0.1,0.7l0.4,0.6l0.1,0.7l0.3,0.7
	l0.1,0.7l0.5,0.4l0.7-0.1l0.7,0.1l0.7,0.1l0.7-0.1l0.7,0.1l0.7-0.1h0.7l0.7,0.1l0.7,0l0.7-0.1l0.7,0.1l0.7,0.1l0.7,0l0.7,0l0.7-0.1
	l-0.5,0.7L29.1,12l-0.7,0.3l-0.6,0.5l-0.5,0.6l-0.7,0.3L26,14l-0.5,0.5l-0.7,0.4l-0.5,0.5l-0.6,0.4l-0.6,0.4l-0.7,0.3l-0.6,0.5
	l-0.5,0.5l-0.3,0.5l0.2,0.7l0.2,0.7l0.3,0.7l0.2,0.7l0.3,0.7l0.3,0.7l0.2,0.7l0.1,0.7l0.3,0.7l0.2,0.7l0.1,0.7l0.2,0.7l0.3,0.7
	l0.2,0.7l0.3,0.7l-0.8-0.3l-0.6-0.5l-0.7-0.3L22,27l-0.6-0.5l-0.6-0.5l-0.6-0.4l-0.6-0.5L19,24.8l-0.7-0.3l-0.5-0.5l-0.6-0.4
	l-0.6-0.4L16,22.7l-0.5-0.5l-0.6,0.1l-0.7,0.3l-0.6,0.5l-0.5,0.5L12.5,24l-0.6,0.4l-0.5,0.5l-0.7,0.3l-0.5,0.5l-0.7,0.4L8.8,26.5z"
	/>
</svg>
