<?xml version="1.0" encoding="utf-8"?>
<!-- Generator: Adobe Illustrator 19.2.0, SVG Export Plug-In . SVG Version: 6.00 Build 0)  -->
<svg version="1.1" id="Layer_1" xmlns="http://www.w3.org/2000/svg" xmlns:xlink="http://www.w3.org/1999/xlink" x="0px" y="0px"
	 viewBox="0 0 30.2 109.3" style="enable-background:new 0 0 30.2 109.3;" xml:space="preserve" class="cwr-svg-3star">
<style type="text/css">
	.st0{fill-rule:evenodd;clip-rule:evenodd;fill:#c7ba91}
</style>
<g>
	<path class="st0" d="M21,63.2c-0.1,0.2-0.3,0.5-0.3,1.2c0.3,0,0.6-0.3,0.6-0.3C21.3,63.9,21.1,63.4,21,63.2z M21.1,57.4
		c-0.3,0-0.6,0.5-0.6,0.8l0.6,0.5V57.4z M17.7,55c-0.1,0.4-0.3,0.6-0.2,1.8c0.6-0.2,0.9-0.6,0.9-1.1C18.4,55.1,18.1,55.3,17.7,55z
		 M20.7,54.8v1.4C21.1,55.6,21.1,55.1,20.7,54.8z M23.7,54.3c-0.3,0.3-0.7,0.2-0.7,0.8s0.1,0.6,0.7,0.8V54.3z M20.8,52.1
		c-0.2,0-0.3,0.7-0.6,1.1c0.3,0.1,0.4,0.4,0.5,0.8c0.6-0.5,0.8-1.2,0.8-1.8H20.8z M23.8,51.6c-0.4,0.3-0.8,0.8-0.8,1.3
		c0.3,0,0.9,0.2,1.1,0C24.1,52.2,23.9,51.9,23.8,51.6z M24.4,69l-0.1-0.6h-0.7l-0.4-0.2l-0.7-0.3L22,67.3l-0.6-0.5l-0.4-0.3
		c-0.1-0.8-0.2-1-0.2-1.2c-0.3,0-0.6,0.1-0.6,0.6l-0.6-0.4L19,65.2l-0.5-0.5L18,64.4c0.1-0.2,0.1-0.6,0-1.1
		c-0.1,0.4-0.6,0.1-0.6,0.7l-0.8-0.6l-0.6-0.4l-0.6-0.4l-0.6,0.1l-0.7,0.3l-0.6,0.4l-0.5,0.5l-0.6,0.4l-0.5,0.5l-0.6,0.4l-0.6,0.4
		L10,65.9l-0.6,0.4l-0.5,0.5l-0.6,0.4l-0.6,0.4l-0.6,0.4l-0.6,0.5L5.9,69l0-0.8l0.3-0.7l0.2-0.7l0.1-0.7l0.3-0.7l0.3-0.7L7.3,64
		l0.3-0.7l0.2-0.7L8,61.9l0.2-0.7l0.2-0.7l0.2-0.7l0.2-0.7l0.3-0.7l-0.2-0.5l-0.6-0.4L7.8,57l-0.6-0.5L6.6,56L6,55.7l-0.6-0.4
		l-0.6-0.5l-0.5-0.5L3.6,54L3,53.6L2.4,53l-0.6-0.4l-0.7-0.3l-0.6-0.4L0,51.4l0.8-0.3l0.7,0l0.7,0l0.7,0l0.7,0l0.8,0h0.7L6,51.1
		l0.7,0.1l0.7-0.1l0.7,0.1l0.7-0.1l0.7,0.1l0.7,0l0.7-0.2l0.6-0.2l0.2-0.7l0.3-0.7l0.2-0.7l0.2-0.7l0.1-0.7l0.3-0.7l0.2-0.7l0.3-0.7
		l0.2-0.7l0.2-0.7l0.2-0.7l0.1-0.7l0.4-0.7l0.1-0.7l0.3-0.7l0.4,0l0.2,0.7l0.2,0.7l0.3,0.7l0.1,0.7l0.2,0.7l0.4,0.7l0.3,0.7l0.2,0.7
		l0.3,0.7l0.2,0.7l0.2,0.7l0.2,0.7l0.3,0.7l0.1,0.7l0.4,0.7l0.4,0.3l0.7,0.1l0.7,0.1l0.7-0.1l0.7,0l0.7,0l0.7-0.1l0.7,0.1l0.7,0.1
		l0.7,0l0.7,0l0.7-0.1l0.7,0l0.7,0h0.5v1.1l-0.8,0.4L27.8,53l-0.5,0.5l-0.4,0.3c-0.2,0-0.5,0.1-0.6,0.3l-0.8,0.5l-0.6,0.4l-0.6,0.4
		L23.7,56l-0.6,0.5L22.5,57l-0.6,0.4l-0.6,0.5l-0.1,0.5l0.1,0.7l0.2,0.7l0.2,0.7l0.2,0.7l0.2,0.7l0.2,0.7l0.4,0.7L23,64l0.2,0.7
		l0.3,0.7c-0.3,0.5-0.3,1.2-0.5,1.8c0.3,0.1,0.3,0.2,1,0.3l0.4,0.8l0.1,0.7L24.4,69z M30.2,51.3l-0.4,0.4v-0.6h0.4L30.2,51.3z
		 M6,14.8v-1.6C4.5,14.1,5.8,14.6,6,14.8z M8.8,26.5L8.3,27c-0.1-0.3-0.3-0.5-0.3-0.8c0-0.6,0.7-0.5,0.7-1c0-0.6,0-0.4-0.3-0.7
		c-0.5,0.5-0.8,0.7-1,1v2.3l-0.8,0.5l-0.6,0.4l0-0.8l0.3-0.7l0.2-0.7l0.3-0.7l0.2-0.7l0.2-0.7l0.2-0.7l0.2-0.6
		c0.1,0.3,0.4,0.5,0.7,0.7v-2.5l-0.1-0.4l0.4-0.7l0.1-0.7l0.2-0.7l0.2-0.7L9,17.5l-0.7-0.3l-0.6-0.4l-0.6-0.4l-0.5-0.5L6,15.3
		L5.3,15l-0.5-0.6l-0.7-0.3l-0.6-0.5l-0.7-0.3l-0.6-0.5l-0.6-0.4L1.1,12l-0.5-0.5L0,11l0.8-0.1l0.7,0l0.7-0.1C2.3,11,2,11,2,11.5
		c0,0.6,0.1,0.6,0.7,0.8v-1.4L3,10.9l0.7-0.1l0.7-0.1l0.7,0.1c-0.1,0.9,0.2,1.2,0.7,1.4l0-1.4l0.7-0.1l0.7,0.1l0.7,0l0.7-0.1l0.7,0
		l0.7,0l0.7,0.1l0.5-0.4l0.3-0.7L12,9.1l0.3-0.7l0.1-0.7L12.7,7l0.3-0.7l0.2-0.7l0.3-0.7l0.2-0.7l0.2-0.7l0.3-0.7l0.2-0.7l0.2-0.7
		l0.3-0.7L15.1,0l0.3,0.7l0.3,0.7L16,2.1l0.1,0.7l0.3,0.7l0.2,0.7l0.2,0.7l0.3,0.7l0.2,0.7L17.5,7l0.1,0.7l0.4,0.6l0.1,0.7l0.3,0.7
		l0.1,0.7l0.5,0.4l0.7-0.1l0.7,0.1l0.7,0.1l0.7-0.1l0.7,0.1l0.7-0.1h0.7l0.7,0.1l0.7,0l0.7-0.1l0.7,0.1l0.7,0.1l0.7,0l0.7,0l0.7-0.1
		l-0.5,0.7L29.1,12l-0.7,0.3l-0.6,0.5l-0.5,0.6l-0.7,0.3L26,14l-0.5,0.5l-0.7,0.4l-0.5,0.5l-0.6,0.4l-0.6,0.4l-0.7,0.3l-0.6,0.5
		l-0.5,0.5l-0.3,0.5l0.2,0.7l0.2,0.7l0.3,0.7l0.2,0.7l0.3,0.7l0.3,0.7l0.2,0.7l0.1,0.7l0.3,0.7l0.2,0.7l0.1,0.7l0.2,0.7l0.3,0.7
		l0.2,0.7l0.3,0.7l-0.8-0.3l-0.6-0.5l-0.7-0.3L22,27l-0.6-0.5l-0.6-0.5l-0.6-0.4l-0.6-0.5L19,24.8l-0.7-0.3l-0.5-0.5l-0.6-0.4
		l-0.6-0.4L16,22.7l-0.5-0.5l-0.6,0.1l-0.7,0.3l-0.6,0.5l-0.5,0.5L12.5,24l-0.6,0.4l-0.5,0.5l-0.7,0.3l-0.5,0.5l-0.7,0.4L8.8,26.5z
		 M24.3,109.3l-0.6-0.5l-0.6-0.5l-0.6-0.4l-0.6-0.4l-0.5-0.5l-0.7-0.3l-0.5-0.6l-0.6-0.4l-0.6-0.5l-0.6-0.5l-0.6-0.4l-0.6-0.4
		l-0.6-0.4l-0.6-0.4l-0.5-0.5l-0.6,0.1l-0.6,0.5l-0.6,0.4L13,104l-0.6,0.5l-0.6,0.4l-0.6,0.5l-0.6,0.4l-0.6,0.5l-0.6,0.4L8.9,107
		l-0.5,0.5L7.8,108l-0.6,0.4l-0.6,0.4l-0.6,0.4l-0.1-0.1l0.1-0.7l0.3-0.7l0.1-0.7l0.2-0.7l0.3-0.7l0.2-0.7l0.1-0.7l0.3-0.7l0.3-0.7
		l0.2-0.7l0.3-0.7l0.3-0.7l0.2-0.7l0.1-0.8L9,98.6l-0.1-0.5l-0.5-0.5l-0.6-0.4l-0.6-0.4l-0.6-0.4L6,95.9l-0.6-0.4L4.8,95l-0.6-0.4
		l-0.6-0.4L3,93.7l-0.6-0.4l-0.6-0.4l-0.5-0.6L0.6,92L0,91.6l0.1-0.2l0.7,0l0.7,0l0.7,0l0.7,0l0.7-0.1l0.7,0.1l0.7,0l0.7,0h0.7
		l0.7-0.1l0.7,0.1l0.7,0l0.7,0.1l0.7-0.1l0.7,0.1l0.5-0.4l0.3-0.7l0.1-0.7l0.2-0.7l0.2-0.7l0.2-0.7l0.3-0.7l0.3-0.7l0.2-0.7l0.1-0.7
		L14,84l0.2-0.7l0.1-0.7l0.3-0.7l0.2-0.7l0.4-0.7l0.1,0l0.2,0.7l0.2,0.7l0.3,0.7l0.2,0.7l0.2,0.7l0.2,0.7l0.2,0.7l0.2,0.7l0.3,0.7
		l0.3,0.7l0.2,0.7l0.2,0.7l0.2,0.7l0.2,0.7l0.4,0.7l0.4,0.4l0.7-0.1l0.7,0.2l0.7-0.1l0.7,0l0.7-0.1l0.7,0l0.7,0l0.7,0l0.7,0.1
		l0.7,0.1l0.7-0.2l0.7,0.2h0.7l0.7,0l0.7-0.1l0,0.2L29.7,92l-0.6,0.4l-0.6,0.4l-0.6,0.3l-0.6,0.4l-0.6,0.4L26,94.5l-0.5,0.6
		l-0.6,0.4l-0.7,0.3l-0.5,0.6l-0.7,0.3l-0.5,0.5l-0.7,0.3l-0.5,0.6l-0.3,0.5l0.3,0.7l0.2,0.7l0.2,0.7l0.3,0.7l0.2,0.7l0.2,0.7
		l0.4,0.6l0.2,0.7l0.2,0.7l0.1,0.8l0.3,0.7L24,107l0.2,0.7l0.1,0.7l0.2,0.7L24.3,109.3z"/>
</g>
</svg>
