<?xml version="1.0" encoding="utf-8"?>
<!-- Generator: Adobe Illustrator 19.2.0, SVG Export Plug-In . SVG Version: 6.00 Build 0)  -->
<svg version="1.1" id="Layer_1" xmlns="http://www.w3.org/2000/svg" xmlns:xlink="http://www.w3.org/1999/xlink" x="0px" y="0px"
	 viewBox="0 0 254 198.6" style="enable-background:new 0 0 254 198.6;" xml:space="preserve" class="cwr-logo-svg">
<style type="text/css">
	.st0{fill-rule:evenodd;clip-rule:evenodd;}
</style>
<g>
	<path class="st0" d="M99.9,3.7L97,7.2c-1,1.2-2.2,2.3-3.7,3.3c-1.4,1-3.3,1.5-5.7,1.5c-4.3,0-8-0.9-11-2.7c-3-1.8-5-4.9-6.1-9.3h-1
		c-0.4,0-0.8,0-1.2,0.1c-0.3,0-0.6,0.2-1,0.6c-3.4,3.7-7.1,6.9-11,9.7c-3.9,2.8-7.5,5.7-10.9,8.8c-3.3,3-6.1,6.4-8.4,10.3
		c-2.2,3.8-3.3,8.6-3.3,14.5c0,3.9,0.5,7.4,1.6,10.4c1.1,3,2.5,5.8,4.3,8.5c1.8,2.7,3.8,5.3,6,7.9c2.3,2.5,4.5,5.2,6.7,8.2
		c1,1.3,1.8,2.6,2.4,4c0.6,1.4,0.9,2.9,0.9,4.6c0,0.9-0.2,1.9-0.5,3c-0.3,1-1.1,1.5-2.5,1.5l-2.1-0.1l-1.9-0.6l-2-0.8
		c-0.6-0.2-0.9-0.3-1-0.4c-2-0.4-4-0.5-6-0.4c-1.9,0.1-3.6-0.4-5.2-1.3c-2.2-1.5-4-3.8-5.4-6.9c-1.4-3.1-2.5-6.4-3.4-10
		c-0.8-3.6-1.4-7.1-1.7-10.6c-0.3-3.6-0.4-6.6-0.4-9.1c0-9.6,2.2-18.1,6.6-25.4c4.4-7.3,10.9-13,19.6-17.2c0.4-0.9,0.1-1.2-0.7-1.2
		h-1c-3.1,0-6.6,0.9-10.6,2.7c-4,1.8-7.9,4-11.6,6.6c-3.8,2.6-7.3,5.4-10.5,8.3c-3.1,2.9-5.4,5.5-6.9,7.8C5.1,38.4,3,43.3,1.8,48.5
		C0.6,53.7,0,59.1,0,64.6c0,6.5,0.9,12.4,2.7,17.9c1.9,5.4,4.3,11,7.3,16.7c0,1.1-0.6,2-1.6,3c-1.1,1-1.8,1.9-2.1,2.7
		c-1.7,2.6-2.9,5.2-3.6,7.8c-0.6,2.6-0.9,5.5-0.9,8.7c0,4.9,1.1,9.1,3.4,12.5c2.4,3.5,5.4,6.3,9,8.5c3.7,2.3,7.7,3.9,12.1,4.9
		c4.5,1.1,8.8,1.6,12.8,1.6c7,0,13.6-1.3,20-4c6.4-2.7,11.8-6.7,16.3-12.1v-1.5c-0.6,0-1.4,0.3-2.5,1l-3.3,2.2
		c-1.2,0.9-2.4,1.7-3.6,2.5c-1.1,0.8-1.9,1.3-2.5,1.6c-3.8,1.9-7.8,3.1-11.9,3.6c-4.1,0.6-8.2,0.9-12.4,0.9c-3.6,0-7.5-0.4-11.6-1.3
		c-4.2-0.8-8-2.1-11.5-4c-3.5-1.9-6.4-4.4-8.8-7.5c-2.3-3-3.4-6.7-3.4-11c0-1.2,0.2-2.7,0.5-4.5c0.4-1.9,0.9-3.7,1.6-5.5
		c0.7-1.8,1.5-3.3,2.4-4.5c0.9-1.3,1.9-1.9,3-1.9H13c3.3,2.9,6.4,5.5,9.4,7.9c3,2.3,6.1,4.2,9.3,5.8c3.2,1.6,6.6,2.8,10.3,3.7
		c3.7,0.8,7.9,1.2,12.5,1.2c7.5,0,14.6-1.3,21.3-4c6.9-2.8,12.9-7,18.2-12.7c0.9-1.2,2.2-2.7,3.7-4.6c1.7-1.9,2.5-3.7,2.5-5.5h-1.5
		l-4.3,3.9c-1.6,1.4-3.3,2.7-5.1,3.9c-1.7,1.2-3.5,2.2-5.4,3c-1.9,0.8-3.8,1.2-5.7,1.2c-0.9,0-1.6-1.7-2.1-5.1
		c-0.4-3.4-0.7-7.5-0.8-12.4c-0.1-5-0.2-10.2-0.2-15.7v-44c0-0.5,0.3-1,0.7-1.5l1.1-1.2c5.3-1.3,9.8-3.6,13.7-7
		c4-3.4,7.3-7.5,9.9-12.4l1.5-2.4c0.5-0.9,0.7-1.8,0.7-2.8C101.8,2.2,100.8,2.7,99.9,3.7z M73.4,105.2c0,0.6-0.3,1.3-1.1,2h-4.5
		c-5.6,0-11.1-1.2-16.6-3.6c-5.4-2.5-9.8-5.9-13.3-10.3c0.7-1,1.1-1.1,1.5-1.1c2.3,0,4.4,0.8,6.3,2.2c2,1.5,3.7,3.1,5.2,4.8
		c2.4,0,4.2-1.3,6.1-3.9c1.9-2.6,3.6-5.6,5.2-9.1c1.6-3.6,2.9-7.2,3.9-10.8c1.1-3.7,1.6-6.6,1.6-8.7c0-3-0.5-5.8-1.6-8.3
		c-1-2.7-2.3-5.2-3.9-7.6c-1.6-2.5-3.4-5-5.5-7.5c-2-2.5-3.9-5.1-5.8-7.9c-1.2-1.7-2.2-3.3-3.1-4.8c-0.9-1.6-1.3-3.5-1.3-5.7
		c0-1.9,0.2-3.1,0.8-3.7c0.5-0.7,1.5-1.7,3-3c1.8,0,3.6,0.9,5.8,2.8l3.1,2.2l2.1,0.8c1.5,0.4,3.1,0.9,4.9,1.6
		c1.8,0.7,3.4,1.4,4.9,2.1c1.5,0.7,2.2,1.2,2.2,1.6V105.2z"/>
	<g>
		<path id="XMLID_1302_" class="st0" d="M249.9,100.8c-1.2-2-2.6-4-4.2-6.2c-1.5-2.1-3-4.3-4.4-6.7c-1.4-2.4-2.6-4.8-3.5-7.3
			c-0.9-2.5-1.3-5.1-1.3-7.8c0-3.2,0.7-6.1,2.1-8.8c1.4-2.6,3.1-5.1,5.1-7.5v-2.4c-1.3,0-2.6,0.5-4,1.7c-1.3,1.1-2.5,2.3-3.6,3.6
			l-1.6,1.9c-1.9,2.2-3.8,4.3-5.5,6.2c-1.6,1.8-3.2,3.6-4.7,5.4c-1.4,1.9-2.7,3.9-3.9,6.2c-1.1,2.1-2,4.7-2.9,7.8L217,95
			c0,5.1,1.1,9.2,2.1,13.6c1,4.4,2.5,7,4.9,10.1c2.7,3.4,5.3,6.8,7.9,10.1c2.7,3.3,4,7.2,4,11.8v3.7c-0.9,2.1-2.3,4.2-4.3,6.3
			c-2,2.1-4.3,3.1-6.9,3.1c-0.6,0-1.9-0.7-3.7-2.1l-2.4-1.8l-1-0.7c-3.4-3-5.6-5.5-7.3-8.1c-1.6-2.7-2.8-5.4-3.7-8.2
			c-0.9-2.8-1.5-5.7-1.8-8.7c-0.2-3-0.3-6.1-0.3-9.4c0-6.7,0.2-21.9,0.6-29.8c0.4-7.9,1.2-16,2.4-24.3c0-2.4-0.5-3.1-1.6-3.1
			c-1.6,0-3.3,0.8-5.3,2.3c-2,1.5-3.5,2.6-4.5,3.3c-3.8,2.7-6.7,6.2-8.9,10.4c-2.1,4.1-3.7,8.7-4.7,13.7c-1,4.9-1.5,10.1-1.7,15.6
			c-0.2,5.3,0.9,14,0.9,17.7c0,3,0.1,6,0.3,9c0.3,3,0.5,6,0.5,8.9c0,0.7-0.3,1.6-0.9,2.8c-0.6,1.1-1.3,2.2-2.2,3.3
			c-0.9,1.1-1.8,2-2.8,2.8c-1,0.8-1.8,1.2-2.5,1.2c-1.1,0-2.4-0.7-4-1.9c-1.5-1.4-2.8-2.4-3.9-3c-2.8-1.7-5.6-2.8-8.5-3.4
			c-2.9-0.7-6-1.1-9.4-1.1c-4.3,0-8.8,0.7-13.6,2.1c-4.8,1.4-9.2,3.4-13.1,6.1c-4,2.6-7.3,5.8-10,9.7c-2.6,3.9-3.9,8.4-3.9,13.4
			c0,4.9,1.2,9,3.6,12.5c2.5,3.6,5.6,6.5,9.2,8.8c3.8,2.3,7.9,4,12.4,5.1c4.5,1.1,8.8,1.6,12.8,1.6c6.9,0,13.4-1.4,19.7-4.3
			c6.3-2.9,11.7-7.1,16.4-12.5c1.1-1.3,2.1-2.6,3-3.9c1-1.2,1.5-2.6,1.5-4.3c-3.8,3.1-6.7,5.7-9.3,7.8c-2.6,2.2-5.3,3.9-8.2,5.2
			c-2.8,1.4-5.9,2.4-9.3,3c-3.3,0.6-7.2,0.9-11.6,0.9c-3.3,0-7.1-0.2-11.5-0.6c-4.3-0.3-8.4-1.1-12.4-2.5c-3.9-1.3-7.2-3.3-9.8-6
			c-2.7-2.7-4-6.4-4-11.1c0-2.4,0.7-4.5,1.9-6.3c1.3-1.8,2.9-3.3,4.8-4.5c2-1.3,4.1-2.2,6.3-2.8c2.3-0.7,4.4-1,6.4-1
			c4.5,0,8.6,1.1,12.4,3.3c3.9,2.1,7.2,4.7,10,7.9c0.6,0.7,1.2,1.8,1.8,3.3c0.6,1.5,1.4,2.3,2.4,2.4c3.7-5.7,7.7-10.6,12.4-14.9
			c4.7-4.3,9.6-8.5,14.8-12.7c0.7,0,1.3,0.6,2.1,1.8c0.8,1.2,1.6,2.6,2.5,4.2l2.7,4.6c1,1.5,1.8,2.5,2.4,3.1l7.6,7.8l3.4,3.6
			l1.6,1.3h1.2c4.5-4.3,9.4-7.9,14.8-10.9c5.5-3.1,10.5-6.3,15.2-9.7c4.7-3.4,8.6-7.4,11.8-11.9c3.2-4.7,4.5-10.9,5.4-18.3
			c0.4-3.3,0.4-6.6-0.6-10.5C252.2,106,251.9,103.9,249.9,100.8z"/>
		<path id="XMLID_1301_" class="st0" d="M115.5,80.2c2.7-0.3,5.3-0.4,7.9-0.4c8.4,0,14.5,2.4,18.5,7.3c4.1,4.9,6.1,11.4,6.1,19.6
			c0,2.8-0.3,5.7-1,8.7c-0.7,2.9-1.8,5.6-3.3,8.1c-1.5,2.4-3.4,4.4-5.8,6c-2.3,1.5-5.1,2.2-8.5,2.2h-4.9c-1.2-0.1-2.3-0.3-3.4-0.6
			c-1-0.3-1.8-0.7-2.5-1.4c-0.7-0.6-1-1.4-1-2.5c4.5,0,8.3-0.8,11.3-2.4c3.1-1.7,4.6-5.1,4.6-10.3c0-3.4-1.1-6.2-3.3-8.5
			c-2.2-2.3-5.1-3.4-8.6-3.4c-3.4,0-6.1,0.9-8.1,2.7c-2,1.7-3.6,4-4.9,7v3.7c0,3,0.6,5.7,1.8,8.2c1.3,2.5,2.9,4.6,4.9,6.4
			c2.1,1.7,4.4,3,7,4c2.7,1,5.4,1.5,8.2,1.5c5.5,0,10.4-1.3,14.8-3.9c4.5-2.6,8.2-5.9,11.2-10c3.1-4.1,5.4-8.7,7-13.7
			c1.7-5.1,2.5-10.2,2.5-15.2c0-2.5-0.3-4.9-0.8-7.2c-0.5-2.3-0.8-4.6-0.7-7.6l-1.9-5.9c0,0-0.8-0.4-1.3-1l-1.6-2.5l-1.8-2.5
			c-0.5-0.8-1.2-1.3-1.2-1.3l-2.7-2.8l-2.8-3.1c-3-2.6-6.5-4.3-10.5-5.2c-4-1-7.8-1.5-11.6-1.5c-3.4,0-6.6,0.2-9.7,0.6
			c-3.1,0.4-6.3,1.1-9.7,2.1c-3,0.9-5.8,1.9-8.5,3c-2.6,1-5.5,1.5-8.6,1.5c-1.2,0-2.5-0.2-4-0.6c-1.5-0.4-2.2-1.4-2.2-3.6l0.5-1.6
			c0.4-1.1,0.6-2.4,0.6-2.4c0-1-0.8-1.5-0.8-1.5c-0.8,0-1.5,0.4-2.1,1.2c-0.5,0.7-0.9,1.6-1.2,2.7c-0.3,1-0.5,2-0.6,3
			c-0.1,1-0.1,2.4-0.1,2.4c0,3.5,0.7,6.6,2.2,9.3c1.5,2.6,3.4,4.8,5.8,6.6c2.4,1.8,5.1,3.2,8.1,4.2c3.1,0.9,6.2,1.4,9.3,1.4
			C110.3,80.5,112.9,80.4,115.5,80.2z"/>
	</g>
</g>
</svg>
