<?xml version="1.0" encoding="utf-8"?>
<!-- Generator: Adobe Illustrator 19.2.0, SVG Export Plug-In . SVG Version: 6.00 Build 0)  -->
<svg version="1.1" id="Layer_1" xmlns="http://www.w3.org/2000/svg" xmlns:xlink="http://www.w3.org/1999/xlink" x="0px" y="0px"
	 viewBox="0 0 19 19" style="enable-background:new 0 0 19 19;" xml:space="preserve">
<style type="text/css">
	.cwr-info-bg-fill{fill:#FFFFFF;}
</style>
<circle class="cwr-info-bg-fill" cx="9.5" cy="9.5" r="8.7"/>
<path class="cwr-info" d="M9.5,1.6c4.4,0,7.9,3.6,7.9,7.9s-3.6,7.9-7.9,7.9s-7.9-3.6-7.9-7.9S5.1,1.6,9.5,1.6z M9.5,0C4.3,0,0,4.3,0,9.5
	S4.3,19,9.5,19S19,14.7,19,9.5S14.7,0,9.5,0z M9.5,4.6c0.5,0,1,0.4,1,1s-0.4,1-1,1c-0.5,0-1-0.4-1-1S9,4.6,9.5,4.6z M11.1,14.2H7.9
	v-0.8c0.4-0.1,0.8-0.2,0.8-0.6V9.3c0-0.4-0.4-0.5-0.8-0.6V7.9h2.4v5c0,0.4,0.4,0.4,0.8,0.6V14.2z"/>
</svg>
