<?xml version="1.0" encoding="utf-8"?>
<!-- Generator: Adobe Illustrator 19.2.0, SVG Export Plug-In . SVG Version: 6.00 Build 0)  -->
<svg version="1.1" id="Layer_1" xmlns="http://www.w3.org/2000/svg" xmlns:xlink="http://www.w3.org/1999/xlink" x="0px" y="0px"
	 viewBox="0 0 249.3 63" style="enable-background:new 0 0 249.3 63;" xml:space="preserve">
<style type="text/css">
	.st0{fill-rule:evenodd;clip-rule:evenodd;fill:#AA9865;}
	.st1{fill-rule:evenodd;clip-rule:evenodd;}
	.st2{fill:#AA9865;}
</style>
<g>
	<path id="XMLID_1129_" class="st0" d="M214.4,50.6c-3.6,0.8-5.9,2.6-8,4.5c-1.1,1-2.2,2-3.3,2.9c-1.2,0.9-2.5,1.6-4.2,2
		c-2.5,0.6-5,0.4-5.3-1.7c-0.1-0.4,0-0.6,0.1-0.8l0-0.1c0-0.1,0-0.1,0.1-0.1c0,0,0-0.1-0.1-0.1c0,0-0.1,0-0.1,0c0,0,0,0-0.1,0
		c0,0-0.1,0.1-0.1,0.1c-0.1,0.2-0.2,0.5-0.1,0.9c0.4,2.4,3.1,3,5.8,2.4c3.5-0.9,5.8-2.6,7.9-4.5c1.1-1,2.1-2,3.3-2.9
		c1.2-0.9,2.5-1.6,4.2-2c2.6-0.6,5.1,0,5.4,2.1c0,0.4,0,0.6-0.1,0.8c0,0,0,0.1,0,0.1c0,0.1,0,0.1,0,0.2c0.1,0,0.1,0,0.2,0
		c0,0,0.1-0.1,0.1-0.1c0.1-0.2,0.2-0.5,0.1-0.9C219.9,51.1,217,50,214.4,50.6z"/>
	<path id="XMLID_1128_" class="st0" d="M25.4,53.5c-0.1,0.4,0,0.7,0.1,0.9c0,0.1,0.1,0.1,0.1,0.1c0,0,0.1,0.1,0.2,0
		c0,0,0.1-0.1,0-0.2c0,0,0-0.1,0-0.1c-0.1-0.1-0.1-0.4-0.1-0.8c0.3-2.1,2.8-2.7,5.4-2.1c1.6,0.4,3,1.1,4.2,2
		c1.2,0.9,2.3,1.9,3.3,2.9c2.1,1.9,4.4,3.6,7.9,4.5c2.6,0.7,5.4,0,5.8-2.4c0.1-0.4,0-0.8-0.1-0.9c0-0.1-0.1-0.1-0.1-0.1
		c0,0,0,0-0.1,0c0,0-0.1,0-0.1,0c0,0-0.1,0.1,0,0.1c0,0,0,0,0,0.1l0,0.1c0.1,0.1,0.1,0.4,0.1,0.8c-0.3,2.1-2.7,2.3-5.3,1.7
		c-1.6-0.4-3-1.1-4.2-2c-1.2-0.9-2.2-1.9-3.3-2.9c-2.1-1.9-4.3-3.7-8-4.5C28.6,50,25.8,51.1,25.4,53.5z"/>
	<path id="XMLID_1085_" class="st0" d="M95.4,38.9c-0.1-0.1-0.1-0.1-0.2,0c-0.1,0.1-0.1,0.2-0.1,0.2c-0.3,0.3-0.4,0.7-0.4,0.9v0.1
		c0,0.1,0.1,0.1,0.2,0.2c0.1,0,0.2,0,0.1,0l0.8-0.8c-0.1-0.1-0.1-0.2-0.2-0.4C95.6,39.2,95.5,39,95.4,38.9z M103.4,35
		c-0.1-0.5-0.1-0.8-0.1-1V9.7c-0.3-0.1-0.5-0.3-0.7-0.6v23c0,0.3,0.1,0.7,0.2,1.4C103,34.2,103.2,34.6,103.4,35z M105.9,38.2h-0.2
		c-0.4,0-0.9,0.3-1.6,0.8c-0.6,0.5-1.2,0.9-1.6,1.3c-0.5,0.3-0.9,0.6-1.2,0.9l0.2-0.4c-0.1,0.2-0.3,0.5-0.5,0.6
		c-0.2,0.2-0.4,0.3-0.5,0.4c-0.1,0.1-0.2,0.3-0.2,0.4c0,0.1,0.1,0.3,0.3,0.5c0.1,0.1,0.2,0.1,0.2,0.2c0.1,0.1,0.1,0.1,0.1,0.1h0.8
		c0.1,0,0.2-0.1,0.4-0.4c0.2-0.3,0.3-0.4,0.3-0.5c0.5-0.3,1-0.7,1.6-1.1c0.6-0.4,1.2-0.8,1.7-1.2c0.5-0.4,1-0.8,1.3-1.1
		c0.4-0.3,0.6-0.6,0.6-0.8v-0.3c-0.3,0-0.7,0.1-0.9,0.4C106.5,38.1,106.2,38.2,105.9,38.2z M108.9,6.1v0.1c0,1.1-0.3,2-0.9,2.8
		c-0.5,0.8-1.4,1.1-2.7,1.1c0.4,0.5,1,0.7,1.8,0.7c0.9,0,1.5-0.2,1.9-0.8c0.4-0.5,0.6-1.2,0.6-2c0-0.4-0.1-0.8-0.2-1.1
		C109.3,6.8,109.2,6.5,108.9,6.1z M67.9,22.6c0.3,0.1,0.6,0.2,1,0.2c1,0,1.8-0.2,2.5-0.7c0.8-0.5,1.5-1.1,2-1.7
		c0.6-0.7,1.1-1.5,1.4-2.4c0.3-0.8,0.5-1.6,0.5-2.4c-0.5,0-0.8,0.2-1.1,0.7c-0.2,0.4-0.5,0.8-0.8,1.1c-0.7,1.2-1.6,2.1-2.7,2.8
		c-1.1,0.7-2.2,1.3-3.5,1.8H67c0.1,0,0.3,0.1,0.5,0.2L67.9,22.6z M64.7,25.3v-3.9c-0.2-0.1-0.4-0.2-0.6-0.4L64,24.8v0.4
		C64.2,25.4,64.4,25.3,64.7,25.3z M65.7,30.3c0.4-0.3,0.7-0.5,0.9-0.7v-0.3c0-0.2-0.1-0.3-0.3-0.5c-0.2-0.2-0.3-0.2-0.5-0.2
		c-0.3,0-0.7,0.1-1.1,0.4l-1.3,0.8c-0.5,0.3-1,0.5-1.5,0.8c-0.5,0.3-1.1,0.4-1.7,0.4h-0.2l0.4,0.2c0.5,0.3,1.1,0.5,1.7,0.5
		c0.4,0,0.8-0.1,1.2-0.2c0.4-0.2,0.9-0.3,1.3-0.5C64.9,30.7,65.4,30.5,65.7,30.3z M75.3,28c0.1,0.4,0.1,0.9,0.1,1.3
		c0.1,0.4,0.1,0.8,0.1,1.1v0.4c-0.1,0.8-0.2,1.5-0.2,2.1c0,0.6-0.2,1.3-0.5,2c-0.3,0.9-1,1.6-1.9,2.2c-0.9,0.6-1.8,1.1-2.7,1.5
		c-0.2,0.1-0.4,0.2-0.6,0.3L69.4,39c-0.1,0-0.3,0.2-0.7,0.4c-0.3,0.2-0.6,0.4-1,0.6c-0.6,0.4-1.2,0.8-1.7,1.2
		c-0.5,0.4-1.1,0.7-1.7,1c0.2,0.2,0.3,0.3,0.4,0.5l0.5,0.5h0.2c0.1,0,0.3-0.1,0.5-0.2c0.2-0.1,0.4-0.3,0.7-0.5
		c0.3-0.2,0.5-0.3,0.7-0.5c0.2-0.2,0.4-0.3,0.5-0.3c0.4-0.4,1-0.8,1.7-1.1l2.4-1c0.8-0.4,1.6-0.8,2.2-1.3c0.7-0.5,1.2-1.1,1.5-1.7
		c0.3-0.6,0.4-1.2,0.4-1.8c0-0.6,0.1-1.3,0.1-2v-0.2c0-0.7-0.1-1.5-0.2-2.2C75.8,29.4,75.6,28.7,75.3,28z M58.7,39.7
		c-0.3,0-0.5,0.1-0.7,0.4c-0.2,0.2-0.4,0.5-0.5,0.8c-0.1,0.3-0.2,0.6-0.3,0.9c-0.1,0.3-0.1,0.5-0.1,0.7h0.2c0.2,0,0.4-0.1,0.6-0.3
		c0.2-0.2,0.5-0.5,0.8-0.8c0.3-0.2,0.6-0.5,0.9-0.7c0.3-0.2,0.7-0.3,1-0.3h0.2c-0.3,0-0.7-0.1-1-0.3C59.5,39.8,59.1,39.7,58.7,39.7z
		 M92.5,37.4c-0.1,0-0.2,0.2-0.6,0.5c-0.3,0.3-0.6,0.5-0.8,0.5c-0.3,0-0.7,0.2-1.3,0.5c-0.5,0.3-1.1,0.8-1.6,1.2
		c-0.6,0.5-1.1,1-1.6,1.5c-0.5,0.5-0.8,0.9-1,1.2h-0.1l0.2,0.2c0.3,0.3,0.6,0.5,0.9,0.5h0.3c0.1,0,0.5-0.3,1.1-0.8
		c0.6-0.5,1.3-1.1,2-1.7c0.7-0.7,1.4-1.3,2-1.9c0.6-0.6,0.9-1,1-1.2v-0.2l-0.2-0.1H92.5z M80.8,39.3l-0.1,0.1
		c-0.4,0.4-0.6,0.9-0.6,1.4h0.6l0.8-0.8l-0.3-0.4C81,39.5,80.9,39.4,80.8,39.3z M88.8,17.9c-0.1,0-0.3,0-0.4,0
		c-0.1-0.1-0.2-0.2-0.2-0.3v16c0,0.3,0.1,0.5,0.2,0.9c0.2,0.3,0.3,0.6,0.5,0.7V19.4c0-0.3,0.2-0.4,0.6-0.6c0.4-0.2,0.8-0.2,1.2-0.2
		c0.3,0,0.6,0,0.9,0.1l0.1-0.2c0.1-0.1,0.1-0.2,0.1-0.4v-0.2c0-0.7-0.3-1.2-0.8-1.3v0.3l-0.8,1.3C89.7,18,89.2,17.9,88.8,17.9z
		 M88.4,13.4V13c0-1,0-2,0.1-2.9c0.1-1,0.3-1.9,0.7-2.9c0.2-0.3,0.5-0.6,0.8-0.8c0.3-0.2,0.5-0.6,0.5-1c-0.8,0-1.4,0.2-1.8,0.6
		c-0.4,0.4-0.6,0.9-0.8,1.5c-0.1,0.6-0.2,1.2-0.2,1.9v3.5l0.1,0.6H88.4z M44.8,38c-0.3,0-0.6,0-0.8-0.1c-0.7,0.6-1.5,1.3-2.3,2
		c-0.8,0.7-1.5,1.4-2.2,2.2l0.8,0.8h0.5c0.6-0.7,1.4-1.4,2.2-2.1l2.3-2.1c-0.1-0.1-0.1-0.2-0.2-0.4L44.8,38z M41,20.6
		c0,0.6,0,1.2,0,1.8V32c0,0.3,0.1,0.6,0.2,1.1c0.2,0.4,0.3,0.8,0.5,1v-9.8c0-0.5,0-1,0.1-1.6c0.1-0.5,0.1-1,0-1.5
		c0-0.5-0.1-0.9-0.3-1.2c-0.2-0.3-0.5-0.6-1-0.6C40.8,19.6,40.9,19.9,41,20.6z M54.4,36.7c-0.4,0-0.4,0.1-0.6-0.3
		c-0.7,1-1.5,2-2.4,3.1c-0.8,1-1.6,1.8-2.2,2.3c0.1,0.1-0.1-0.1,0,0.1c0.2,0.3,0.4,0.6,0.6,0.8l0.2,0.1c0.2,0.1,0.6-0.2,1.2-0.8
		c0.6-0.6,1.3-1.2,1.9-2c0.7-0.8,1.2-1.6,1.7-2.4c0.5-0.8,0.8-1.3,0.8-1.6c-0.3,0-0.6,0.1-0.7,0.4C54.9,36.5,54.7,36.7,54.4,36.7z
		 M52.9,32.3v-1.5c0-0.5,0-1,0-1.5v-7.6c0-0.4,0.2-0.8,0.6-1.4c0.4-0.6,0.8-1.2,1.2-1.8l-0.6-0.1l-1.2,0.9h-0.2
		c-0.2,0-0.3,0.1-0.4,0.2c-0.1,0.1-0.1,0.2-0.1,0.3v12c0,0.9,0.1,1.4,0.2,1.6C52.8,33.2,52.9,32.8,52.9,32.3z M121.6,37.5
		c-0.3,0.4-0.8,0.6-1.4,0.6c-0.4,0-0.8,0.2-1.3,0.5c-0.5,0.3-1,0.6-1.6,1.1c-0.5,0.4-1,0.8-1.6,1.3l-1.3,1.3
		c0.3,0.3,0.8,0.5,1.3,0.7c0.3,0,0.7-0.2,1.3-0.7c0.6-0.4,1.2-0.9,1.9-1.4c0.7-0.5,1.3-1,1.8-1.5c0.6-0.5,0.9-0.8,1-0.9
		c0.3-0.2,0.7-0.6,1.1-1c0.4-0.5,0.7-0.7,0.7-0.8v-0.2h-0.6C122.4,36.8,122,37.1,121.6,37.5z M115.2,28.1c0.1-0.1,0.2-0.3,0.3-0.4
		v-3.1l0-1.5c0-0.7,0-1.3,0.1-1.7c0-0.1-0.1-0.2-0.2-0.4c-0.1-0.2-0.2-0.3-0.3-0.4c-0.1-0.1-0.1-0.2-0.2-0.2c-0.1,0-0.1,0.1-0.1,0.3
		v6.8l0.1,1L115.2,28.1z M123.1,20.1c0,1.7-0.4,3.2-1.2,4.6c-0.8,1.3-1.7,2.6-2.8,3.7c-0.3,0.7-0.6,1.4-1.2,2.2
		c-0.5,0.8-1.1,1.2-1.7,1.2c-0.3,0-0.5,0-0.6,0.1l-0.3,0.3c0.1,0.6,0.3,0.9,0.5,1c0.3,0.1,0.5,0,0.8-0.2c0.3-0.2,0.6-0.5,0.9-0.8
		c0.3-0.4,0.7-0.7,0.9-0.9c1.3-1.3,2.5-2.6,3.6-4.1c1.1-1.5,1.7-3.2,1.7-5c0-1.4-0.3-2.5-0.8-3.5C123,19,123.1,19.6,123.1,20.1z
		 M32.5,33.9c-0.3,0.2-0.5,0.4-0.8,0.7l-0.8,0.8l-0.5,0.5c-1.8,1.9-3.9,3.3-6.1,4.2c-2.3,0.9-4.6,1.3-7.1,1.3c-0.9,0-1.8,0-2.5-0.1
		c-0.8-0.1-1.5-0.2-2.2-0.4c0.9,0.3,1.8,0.6,2.6,0.8c1.2,0.3,2.5,0.4,4,0.4c2.4,0,4.6-0.4,6.7-1.3c2.2-0.9,4.1-2.2,5.7-4
		c0.3-0.4,0.7-0.9,1.2-1.5c0.5-0.6,0.8-1.2,0.8-1.7h-0.5C33,33.6,32.8,33.7,32.5,33.9z M16.8,10.5c0.1-0.2,0.4-0.4,0.7-0.8
		c-0.1-0.1-0.3-0.2-0.4-0.3c-0.1-0.1-0.2-0.2-0.3-0.2c-0.3,0.3-0.4,0.4-0.6,0.5L15.9,10c0,0.5,0.3,1.1,0.7,1.7
		C16.6,11,16.6,10.6,16.8,10.5z M30.5,7.9c-0.8,0.9-1.6,1.7-2.5,2.4c-0.9,0.7-1.9,1.1-3,1.1v1.4L25,29.9c0,0.9,0,1.8,0,2.5
		c0,0.7,0.1,1.3,0.1,1.6c0.4,0.2,0.6,0.1,0.6,0.1v-1.3c0-0.4,0-0.9,0-1.4c0-1.6,0-3.2,0-4.9c0-1.7,0-3.1,0-4.3V13
		c0-0.2,0.1-0.3,0.2-0.5l0.3-0.4c1.7-0.4,3.1-1.1,4.3-2.2c1.3-1.1,2.3-2.4,3.1-3.9l0.5-0.8c0.2-0.3,0.2-0.6,0.2-0.9
		c-0.5,0-1.1,0.4-1.8,1.1L30.5,7.9z M9.6,13.2c0.1-0.9,0.4-1.6,0.7-2c-0.7,0.9-1.1,2-1.4,3.3c-0.2,1.3-0.4,2.5-0.4,3.8
		c0,0.6,0,1.2,0.1,2c0.1,0.8,0.2,1.6,0.3,2.4c0.1,0.8,0.3,1.6,0.5,2.5c0.2,0.8,0.5,1.5,0.8,2.1l-0.2-0.9c-0.2-1.1-0.4-2.3-0.5-3.4
		c-0.1-1.1-0.1-2.1-0.1-2.8c0-0.9,0.1-1.9,0.2-2.9l-0.1-0.7v-0.8C9.4,14.9,9.5,14,9.6,13.2z M3.3,37.6c-0.3,0.6-0.5,1.2-0.6,1.6
		c0,0.3-0.1,0.5-0.1,0.8l-0.1,0.7c0.2,1,1.2,2.1,1.4,2.4v-0.7c0-0.7,0.1-1.4,0.2-2.1c0.2-0.7,0.5-1.3,0.9-1.9
		c0.4-0.4,0.5-0.6,0.6-0.7l-1.4-1.6C4,36.5,3.6,37,3.3,37.6z M19.2,34.2c0.5-0.5,0.9-1,1.3-1.6c0.4-0.6,0.7-1.2,1.1-1.8L22,30v-3.7
		c-0.3,1.1-0.8,2.1-1.4,3.1c-0.6,1-1,2-1.3,3c-0.1,0.3-0.4,0.5-0.8,0.5c-0.2,0-0.4,0.1-0.6,0.4c-0.3,0.3-0.4,0.4-0.4,0.5
		C18.1,33.9,18.7,34.1,19.2,34.2z M230.2,3.5c0,0.6,0.3,1.1,0.8,1.6l0.1-0.2c0.2-0.5,0.4-0.9,0.7-1.2c0.3-0.3,0.4-0.7,0.4-1.3
		c-0.3,0-0.7,0.1-1.2,0.2C230.5,2.8,230.2,3.1,230.2,3.5z M244.2,18.7c0.1,0.5,0.1,0.9,0.1,1.4v10.7c0,0.7-0.2,1.4-0.5,2.1
		c-0.3,0.7-0.7,1.4-1.1,2c-0.5,0.6-1,1.2-1.6,1.7c-0.5,0.5-1,0.9-1.5,1.2c-1,0.6-2,1.3-3,1.9c-0.9,0.6-1.9,1.5-2.9,2.5
		c0.2,0.2,0.3,0.3,0.5,0.4c0.2,0.1,0.3,0.3,0.4,0.4h0.3c0.9-1,1.8-1.8,2.8-2.5c1-0.7,2-1.3,3.1-2c0.4-0.3,0.9-0.6,1.4-1
		c0.5-0.5,1-1,1.4-1.5c0.4-0.6,0.7-1.1,1-1.7c0.3-0.6,0.4-1.2,0.4-1.7V22C245,20.8,244.8,19.7,244.2,18.7z M233.8,19
		c0-0.4-0.1-0.7-0.2-0.9c-0.1-0.2-0.3-0.3-0.5-0.5v12.8c0,0.5,0.2,1.1,0.7,1.7V19z M222.2,21.3c0,0.2,0,0.4,0,0.6v8.9
		c0,0.5-0.1,1-0.3,1.6c-0.2,0.6-0.4,1.1-0.8,1.6c-0.3,0.5-0.7,1-1.1,1.4c-0.4,0.4-0.8,0.8-1.1,1l-4.8,3c-0.2,0.1-0.4,0.3-0.7,0.6
		c-0.2,0.3-0.5,0.6-0.7,0.9c-0.2,0.3-0.4,0.6-0.5,0.8c-0.1,0.3-0.1,0.5,0.1,0.7c0.3,0.3,0.5,0.4,0.7,0.4c0.1,0,0.3-0.1,0.5-0.4
		c0.3-0.3,0.5-0.6,0.8-0.9l0.8-0.9c0.2-0.3,0.5-0.4,0.7-0.4l4.5-2.8c0.6-0.4,1.2-1.1,1.8-2c0.6-0.9,0.9-1.8,0.9-2.6v-8.8
		c0-1.1-0.3-2-0.8-2.9V21.3z M211.9,28.3c0-0.7,0-1.3,0-2V23c0-0.4,0-0.8,0-1.2v-1.2c0-0.4-0.1-0.7-0.2-0.8
		c-0.1-0.2-0.3-0.3-0.5-0.5v0.7c0,0.3,0,0.6,0,0.8v4.5c0,0.4,0,0.8,0,1.2v1.3c0,0.4,0,0.7,0,1.1v0.7c0,0.3,0.1,0.6,0.2,1
		c0.2,0.3,0.3,0.6,0.5,0.8v-0.4c0-0.2,0-0.4,0-0.6V28.3z M201.5,21.3c0,0.2,0.1,0.4,0.1,0.6v8.9c0,0.5-0.1,1-0.3,1.6
		c-0.2,0.6-0.4,1.1-0.8,1.6c-0.3,0.5-0.7,1-1.1,1.4c-0.4,0.4-0.8,0.8-1.1,1l-4.8,3c-0.2,0.1-0.4,0.3-0.7,0.6
		c-0.3,0.3-0.5,0.6-0.7,0.9c-0.2,0.3-0.4,0.6-0.5,0.8c-0.1,0.3-0.1,0.5,0.1,0.7c0.3,0.3,0.5,0.4,0.7,0.4c0.1,0,0.3-0.1,0.5-0.4
		c0.3-0.3,0.5-0.6,0.8-0.9l0.8-0.9c0.3-0.3,0.5-0.4,0.7-0.4l4.5-2.8c0.6-0.4,1.2-1.1,1.8-2c0.6-0.9,0.9-1.8,0.9-2.6v-8.8
		c0-1.1-0.3-2-0.8-2.9V21.3z M191.2,28.3c0-0.7,0-1.3-0.1-2V23c0-0.4,0.1-0.8,0.1-1.2v-1.2c0-0.4-0.1-0.7-0.2-0.8
		c-0.1-0.2-0.3-0.3-0.5-0.5v0.7c0,0.3,0,0.6,0,0.8v4.5c0,0.4,0,0.8,0,1.2v1.3c0,0.4,0,0.7,0,1.1v0.7c0,0.3,0.1,0.6,0.2,1
		c0.2,0.3,0.3,0.6,0.5,0.8v-0.4c0-0.2,0-0.4,0-0.6V28.3z M138.1,13.5c0.8-0.1,1.7-0.1,2.5-0.1c0.6,0,1.1,0,1.7,0.1
		c-0.9-0.6-2.1-0.8-3.5-0.8c-0.4,0-0.9,0-1.3,0l-1.2,0.1l-1.3,0.1h-1.2c-0.2,0-0.5,0-0.9,0c-0.4-0.1-0.7-0.1-0.9-0.1l0.8,0.4
		c1,0.3,1.9,0.4,2.9,0.4C136.4,13.6,137.3,13.6,138.1,13.5z M176.2,12.3v-0.6c0-1,0.2-1.9,0.7-2.8c0.4-0.8,1-1.6,1.6-2.4V5.9
		c-0.4,0-0.8,0.2-1.3,0.5c-0.4,0.4-0.8,0.7-1.1,1.1L175.7,8c-0.1,0.2-0.2,0.4-0.3,0.8v0.6c0,0.5,0.1,1,0.2,1.5
		C175.8,11.4,176,11.9,176.2,12.3z M143.5,30.2c0.2,0,0.5,0,0.7,0c0.6,0,1.2,0,1.7,0.1c0.5,0.1,1-0.1,1.6-0.4c1-0.6,2-1.3,2.8-2.2
		c0.8-0.9,1.5-1.9,2-3c0.6-1.1,1-2.3,1.3-3.5c0.3-1.2,0.5-2.4,0.5-3.6c0-0.8,0.3-1.6,0.1-2.3c-0.2-0.7-0.1-1.4-0.1-2.2
		c0-0.5-0.1-0.7-0.2-1.4c-0.1-1-1.5-2.1-1.5-2.1l0.4,1.5c0,0.7,0.1,1.4,0.2,2.2c0.1,0.3,0.1,0.7,0.1,1.1c0.1,0.4,0.1,0.8,0.1,1.3
		c0,1.6-0.2,3.2-0.7,4.8c-0.5,1.6-1.2,3.1-2.1,4.4c-0.9,1.3-2,2.5-3.3,3.5c-1.3,0.9-2.7,1.6-4.4,1.8C143,30.2,143.3,30.2,143.5,30.2
		z M152.9,37.5c-0.6,0.7-1.1,1.4-1.6,2.1c-0.5,0.8-1,1.4-1.3,2c0.2,0.5,0.3,0.6,0.5,0.8c0.1,0.2,0.3,0.2,0.4,0.2
		c0.2,0,0.4-0.2,0.7-0.7c0.4-0.4,0.8-0.9,1.2-1.5l1.2-1.6c0.4-0.5,0.7-0.8,0.8-0.9c1-1,2.1-1.9,3.3-2.9c-0.2-0.3-0.3-0.4-0.4-0.4
		c-0.1,0-0.2,0-0.3,0c-0.1,0.1-0.2,0.2-0.3,0.3c-0.1,0.1-0.3,0.1-0.5,0.1c-0.5,0-1.1,0.2-1.7,0.7C154.1,36.3,153.5,36.9,152.9,37.5z
		 M141.2,26.6c0.5-0.1,1-0.2,1.4-0.5c0.4-0.3,0.8-0.5,1.1-0.9c0.1-0.4,0.1-0.7,0.1-0.9c0-0.2,0-0.4-0.1-0.7
		c-0.1-0.3-0.1-0.6-0.2-0.8c-0.1-0.2-0.1-0.4-0.2-0.5c-0.1,1.2-0.3,2-0.6,2.7C142.2,25.7,141.8,26.2,141.2,26.6z M180.7,22.2
		c0,0.5,0,0.8,0,1.2c0.1,0.4,0.1,0.8,0.1,1c0,2.4-0.5,4.4-1.4,5.9c-0.9,1.5-2.1,2.8-3.5,3.9l-0.5,0.8c-0.2,0.3-0.8,0.5-1,0.7
		c-0.6,0.7-1,1.1-1.8,1.1l-0.3-0.1l-0.7,0.4l-1.4,0.8c-0.7,0.4-1.3,0.8-2,1.3c-0.7,0.5-1.3,0.9-1.7,1.4c-0.5,0.5-0.6,0.8-0.4,1.1
		c0.3,0.3,0.5,0.5,0.5,0.5h0.4c1.4-1.3,3-2.5,4.7-3.4c1.7-1,3.3-2,4.8-3.1c1.5-1.1,2.7-2.3,3.7-3.8c1-1.5,1.5-3.4,1.5-5.7
		c0-1-0.1-2-0.4-3C180.9,22.6,180.8,22.2,180.7,22.2z M143.8,37.5c-1.1-0.6-2.1-0.8-3.2-0.8c-1.2,0-2.2,0.3-3.2,0.9
		c-0.9,0.6-1.5,1.6-1.8,2.9c0.1,0.8,0.3,1.4,0.7,1.9v-0.4c0-0.8,0.2-1.4,0.6-2c0.4-0.6,0.9-1,1.5-1.4c0.6-0.4,1.3-0.7,2-0.9
		c0.7-0.2,1.4-0.3,2-0.3C142.9,37.3,143.3,37.4,143.8,37.5z M158.6,44.1c-0.3,0.3-0.6,0.6-0.8,0.8c-0.2,0.3-0.4,0.4-0.4,0.5
		c-0.6,0.5-1.2,0.9-1.8,1.3c-2.9,2.3-6.3,3.5-9.9,3.5c-0.7,0-1.5-0.1-2.3-0.2c-0.8-0.1-1.5-0.2-2.3-0.4c0.4,0.2,0.8,0.3,1.1,0.4
		l1.2,0.4c1.5,0.3,2.8,0.5,4.1,0.5c2.2,0,4.2-0.5,6.2-1.4c2-0.9,3.7-2.2,5.2-4c0.3-0.4,0.7-0.8,0.9-1.2c0.3-0.4,0.5-0.8,0.5-1.4
		c-0.4,0-0.6,0.1-0.8,0.3C159.2,43.6,158.9,43.8,158.6,44.1z M166.3,28.3l-0.1-0.9l-0.1-1.4v-1.6c0-2.1,0.1-6.2,0.3-8.7
		c0.1-2.5,0.4-5.1,0.7-7.7c0-0.8-0.2-1-0.5-1c-0.3,0-0.5,0.6-0.7,1.9c-0.2,1.2-0.3,2.6-0.3,4.3c-0.1,1.6-0.1,3.2-0.1,4.7
		c0,1.5,0,4.2,0,4.6c0,1.2,0.1,2.3,0.2,3.4c0.1,1.1,0.4,2.1,0.8,3.1C166.4,28.9,166.4,28.6,166.3,28.3z"/>
	<path id="XMLID_1061_" class="st1" d="M30.6,4.1c-0.3,0.4-0.7,0.7-1.2,1c-0.4,0.3-1,0.5-1.8,0.5c-1.4,0-2.5-0.3-3.5-0.8
		c-0.9-0.6-1.6-1.5-1.9-2.9h-0.3c-0.1,0-0.3,0-0.4,0c-0.1,0-0.2,0.1-0.3,0.2c-1.1,1.2-2.2,2.2-3.5,3.1c-1.2,0.9-2.4,1.8-3.4,2.8
		c-1,0.9-1.9,2-2.6,3.2c-0.7,1.2-1,2.7-1,4.6c0,1.2,0.2,2.3,0.5,3.3c0.3,0.9,0.8,1.8,1.4,2.7c0.6,0.8,1.2,1.7,1.9,2.5
		c0.7,0.8,1.4,1.6,2.1,2.6c0.3,0.4,0.6,0.8,0.8,1.3c0.2,0.4,0.3,0.9,0.3,1.5c0,0.3,0,0.6-0.1,0.9c-0.1,0.3-0.4,0.5-0.8,0.5l-0.7,0
		l-0.6-0.2l-0.6-0.2c-0.2-0.1-0.3-0.1-0.3-0.1c-0.6-0.1-1.3-0.2-1.9-0.1c-0.6,0-1.1-0.1-1.6-0.4c-0.7-0.5-1.3-1.2-1.7-2.2
		c-0.4-1-0.8-2-1.1-3.2c-0.3-1.1-0.4-2.2-0.5-3.3c-0.1-1.1-0.1-2.1-0.1-2.9c0-3,0.7-5.7,2.1-8c1.4-2.3,3.4-4.1,6.2-5.4
		c0.1-0.3,0-0.4-0.2-0.4h-0.3c-1,0-2.1,0.3-3.3,0.8c-1.3,0.6-2.5,1.3-3.7,2.1C6.9,8.1,5.8,9,4.8,10c-1,0.9-1.7,1.7-2.2,2.4
		c-1,1.5-1.6,3.1-2,4.7C0.2,18.8,0,20.4,0,22.2c0,2,0.3,3.9,0.9,5.6c0.6,1.7,1.4,3.5,2.3,5.3c0,0.4-0.2,0.6-0.5,0.9
		c-0.3,0.3-0.6,0.6-0.7,0.8c-0.5,0.8-0.9,1.6-1.1,2.4c-0.2,0.8-0.3,1.7-0.3,2.7c0,1.5,0.4,2.9,1.1,4c0.8,1.1,1.7,2,2.8,2.7
		c1.2,0.7,2.4,1.2,3.8,1.6c1.4,0.3,2.8,0.5,4,0.5c2.2,0,4.3-0.4,6.3-1.3c2-0.8,3.7-2.1,5.1-3.8v-0.5c-0.2,0-0.5,0.1-0.8,0.3l-1,0.7
		c-0.4,0.3-0.8,0.5-1.1,0.8c-0.3,0.3-0.6,0.4-0.8,0.5c-1.2,0.6-2.4,1-3.8,1.1C15,46.9,13.7,47,12.3,47c-1.1,0-2.4-0.1-3.7-0.4
		c-1.3-0.3-2.5-0.7-3.6-1.3c-1.1-0.6-2-1.4-2.8-2.4c-0.7-0.9-1.1-2.1-1.1-3.5c0-0.4,0-0.8,0.1-1.4c0.1-0.6,0.3-1.2,0.5-1.7
		c0.2-0.6,0.5-1,0.8-1.4c0.3-0.4,0.6-0.6,0.9-0.6h0.6c1,0.9,2,1.7,3,2.5C8,37.5,9,38.1,10,38.6c1,0.5,2.1,0.9,3.2,1.2
		c1.2,0.3,2.5,0.4,4,0.4c2.4,0,4.6-0.4,6.7-1.3c2.2-0.9,4.1-2.2,5.7-4c0.3-0.4,0.7-0.9,1.2-1.5c0.5-0.6,0.8-1.2,0.8-1.7h-0.5
		l-1.4,1.2c-0.5,0.4-1,0.8-1.6,1.2c-0.5,0.4-1.1,0.7-1.7,0.9c-0.6,0.2-1.2,0.4-1.8,0.4c-0.3,0-0.5-0.5-0.7-1.6
		c-0.1-1.1-0.2-2.4-0.2-3.9c0-1.6,0-3.2,0-4.9V11.1c0-0.2,0.1-0.3,0.2-0.5l0.3-0.4c1.7-0.4,3.1-1.1,4.3-2.2C29.9,7,31,5.7,31.8,4.2
		l0.5-0.8c0.2-0.3,0.2-0.6,0.2-0.9c-0.4,0-0.7,0.2-1,0.5L30.6,4.1z M23.2,35c0,0.2-0.1,0.4-0.3,0.6h-1.4c-1.8,0-3.5-0.4-5.2-1.1
		c-1.7-0.8-3.1-1.9-4.2-3.2c0.2-0.3,0.3-0.3,0.5-0.3c0.7,0,1.4,0.2,2,0.7c0.6,0.5,1.2,1,1.6,1.5c0.8,0,1.3-0.4,1.9-1.2
		c0.6-0.8,1.1-1.8,1.6-2.9c0.5-1.1,0.9-2.3,1.2-3.4c0.3-1.2,0.5-2.1,0.5-2.7c0-0.9-0.2-1.8-0.5-2.6c-0.3-0.9-0.7-1.6-1.2-2.4
		c-0.5-0.8-1.1-1.6-1.7-2.4c-0.6-0.8-1.2-1.6-1.8-2.5c-0.4-0.5-0.7-1-1-1.5c-0.3-0.5-0.4-1.1-0.4-1.8c0-0.6,0.1-1,0.2-1.2
		c0.2-0.2,0.5-0.5,0.9-0.9c0.6,0,1.1,0.3,1.8,0.9l1,0.7l0.7,0.2c0.5,0.1,1,0.3,1.6,0.5c0.6,0.2,1.1,0.4,1.6,0.7
		c0.5,0.2,0.7,0.4,0.7,0.5V35z M52.5,34.8c-0.5,0-0.8-0.3-1-0.8c-0.2-0.6-0.3-1.3-0.4-2.2C51,30.9,51,29.9,51,28.9
		c0-1,0.1-2,0.1-2.9v-6.2c0-0.3,0.2-0.8,0.6-1.4c0.4-0.6,0.8-1.2,1.2-1.8l-0.6-0.1L51,17.5h-0.2c-0.2,0-0.5-0.2-1-0.7
		c-0.5-0.5-1.1-1.1-1.7-1.6c-0.6-0.6-1.3-1.1-2-1.6c-0.7-0.5-1.3-0.8-1.8-0.8c-0.2,0-0.4,0.1-0.6,0.3c-0.2,0.2-0.4,0.4-0.7,0.7
		c-0.2,0.3-0.4,0.5-0.6,0.8c-0.2,0.2-0.3,0.4-0.5,0.6c-1,0.9-2.1,1.7-3.1,2.3c-1,0.6-1.9,1.2-2.7,1.8c-0.8,0.7-1.4,1.5-1.9,2.4
		c-0.5,0.9-0.7,2.2-0.7,3.9v1.9c0,0.7,0,1.5,0,2.3l0.1,2.4c0,0.7,0.1,1.2,0.1,1.5c0.1,0.6,0.3,1.4,0.6,2.2c0.3,0.8,0.7,1.5,1.1,2
		l3.1,3.2h0.5c0.8-0.9,1.7-1.8,2.7-2.7l2.9-2.4h0.2c0.2,0,0.4,0.2,0.7,0.7c0.3,0.5,0.7,1,1,1.6c0.4,0.6,0.7,1.2,1,1.7
		c0.3,0.5,0.5,0.8,0.6,0.8l0.2,0.1c0.2,0.1,0.6-0.1,1.2-0.7c0.6-0.6,1.3-1.3,1.9-2.1c0.7-0.8,1.2-1.6,1.7-2.4
		c0.5-0.8,0.8-1.3,0.8-1.6c-0.3,0-0.5,0.1-0.7,0.4C53,34.7,52.8,34.8,52.5,34.8z M44.9,32.7c0,0.3-0.1,0.6-0.1,1
		c-0.1,0.4-0.2,0.8-0.4,1.1c-0.2,0.3-0.4,0.6-0.7,0.9c-0.2,0.3-0.6,0.4-0.9,0.4c-0.5,0-0.9-0.1-1.2-0.4c-0.3-0.3-0.6-0.6-0.9-1
		c-0.2-0.4-0.4-0.8-0.6-1.3c-0.1-0.5-0.2-0.9-0.3-1.2V21c0-0.5,0-0.9,0-1.3c0.1-0.4,0.1-0.7,0.2-1c0.1-0.3,0.2-0.4,0.4-0.4
		c0.5,0,0.9,0.2,1.4,0.5c0.5,0.3,0.9,0.8,1.3,1.3c0.4,0.5,0.8,1,1,1.6c0.3,0.6,0.5,1.1,0.6,1.5v1.8c0,0.8,0,1.7,0,2.7
		c0,0.9,0,1.8,0,2.6l0.1,1.7V32.7z M73.4,26.1c-0.3-0.6-0.8-1.1-1.4-1.5c-0.6-0.4-1.3-0.6-2.2-0.6c-0.7,0-1.2,0.1-1.7,0.4
		c-0.5,0.3-0.9,0.6-1.4,0.9c-0.4,0.3-0.8,0.6-1.2,0.9c-0.4,0.3-0.8,0.4-1.3,0.4c-0.3,0-0.7-0.2-0.9-0.6c-0.3-0.4-0.4-0.8-0.4-1.1
		v-5.3c0-0.2,0.2-0.3,0.5-0.1c0.3,0.1,0.7,0.3,1.2,0.6c0.5,0.2,0.9,0.4,1.4,0.7c0.5,0.2,0.8,0.3,1.1,0.3h0.1c0.9,0,1.6-0.2,2.4-0.7
		c0.8-0.5,1.5-1.1,2-1.7c0.6-0.7,1.1-1.5,1.4-2.4c0.3-0.8,0.5-1.6,0.5-2.4c-0.3,0-0.6,0.1-0.8,0.4c-0.2,0.2-0.4,0.5-0.6,0.8
		c-0.2,0.3-0.4,0.6-0.8,0.8c-0.3,0.3-0.7,0.4-1.3,0.4c-0.4,0-0.8-0.1-1.1-0.3c-0.3-0.3-0.5-0.5-0.8-0.8c-0.2-0.3-0.4-0.6-0.5-0.8
		c-0.2-0.3-0.3-0.4-0.5-0.4c-0.8,0.3-1.5,0.8-2.3,1.5c-0.7,0.6-1.4,1.1-2.1,1.5c-0.8,0.5-1.7,1-2.5,1.5c-0.8,0.5-1.6,1-2.2,1.6
		c-0.6,0.6-1.1,1.2-1.6,2c-0.4,0.8-0.6,1.7-0.6,2.7c0,0.6,0.1,1.2,0.3,1.8c0.2,0.6,0.5,1.1,0.9,1.6c0.4,0.5,0.8,0.9,1.3,1.2
		c0.5,0.3,1.1,0.5,1.7,0.5c0.6,0,1.2-0.1,1.7-0.3c0.5-0.3,1-0.5,1.5-0.8c0.5-0.3,0.9-0.6,1.3-0.8c0.4-0.3,0.8-0.4,1.2-0.4
		c0.5,0,0.9,0.2,1.3,0.6c0.4,0.4,0.7,0.8,0.7,1.3V36l-0.2,0.2c-0.8-0.7-1.6-1.2-2.4-1.4c-0.8-0.2-1.8-0.3-2.8-0.3
		c-0.7,0-1.4,0.2-2.2,0.6c-0.8,0.4-1.6,0.9-2.4,1.5c-0.7,0.6-1.3,1.3-1.8,2c-0.5,0.7-0.8,1.4-0.8,2.1h0.2c0.2,0,0.4-0.1,0.6-0.3
		c0.3-0.2,0.5-0.5,0.8-0.7c0.3-0.3,0.6-0.5,0.9-0.8c0.3-0.2,0.7-0.3,1-0.3c1.1,0,1.9,0.3,2.5,0.8c0.6,0.5,1.4,1.2,2.2,2h0.2
		c0.1,0,0.3-0.1,0.5-0.2c0.2-0.2,0.4-0.3,0.7-0.5c0.3-0.2,0.5-0.4,0.7-0.5c0.2-0.2,0.4-0.3,0.5-0.4c0.4-0.4,1-0.8,1.7-1.1
		c0.8-0.3,1.6-0.7,2.4-1c0.8-0.4,1.6-0.8,2.2-1.3c0.7-0.5,1.2-1,1.5-1.7c0.3-0.6,0.4-1.2,0.4-1.8c0-0.6,0.1-1.3,0.1-2v-0.2
		c0-0.8-0.1-1.5-0.2-2.3C74,27.4,73.7,26.7,73.4,26.1z M90.6,35.5c-0.1,0-0.3,0.2-0.6,0.5c-0.3,0.3-0.6,0.5-0.8,0.5
		c-0.5,0-1-0.4-1.5-1.1C87.2,34.6,87,34,87,33.5v-16c0-0.3,0.2-0.4,0.6-0.6c0.4-0.2,0.8-0.2,1.2-0.2c0.3,0,0.6,0,0.9,0.1l0.1-0.2
		c0.1-0.1,0.1-0.2,0.1-0.4c0-0.2,0-0.3,0-0.2c0-0.8-0.2-1.2-0.7-1.3c-0.4-0.1-0.9-0.1-1.4-0.1c-0.4,0-0.7-0.1-0.9-0.3
		c-0.2-0.3-0.3-0.5-0.4-0.9c-0.1-0.4-0.1-0.8-0.1-1.1c0-0.4,0-0.8,0-1c0-1,0-2,0.1-2.9c0.1-1,0.3-1.9,0.7-2.9
		c0.2-0.3,0.5-0.6,0.8-0.8c0.3-0.2,0.5-0.6,0.5-1c-0.4,0-0.9,0.1-1.3,0.3c-0.4,0.2-0.8,0.4-1.2,0.7c-1,0.6-1.9,1.3-2.5,1.9
		c-0.6,0.6-1.2,1.3-1.6,2c-0.4,0.7-0.7,1.5-1,2.4c-0.2,0.8-0.5,1.8-0.8,3c0,0.2,0,0.3-0.1,0.5c-0.1,0.2-0.1,0.3-0.2,0.3h-2
		c-0.1,0-0.2,0.1-0.2,0.4c0,0.3-0.1,0.5-0.1,0.7v1c0.1,0.2,0.3,0.3,0.6,0.4c0.3,0.1,0.5,0.1,0.8,0.2c0.2,0,0.5,0.1,0.7,0.1
		c0.2,0,0.3,0.1,0.4,0.2v0.7c0,0.3,0.1,0.6,0.1,1c0,0.3,0.1,0.7,0.1,1c0,0.3,0.1,0.5,0.1,0.7v13.3c-0.1,0.2-0.2,0.4-0.2,0.6
		c0,0.2-0.1,0.4-0.1,0.7c0,0.4-0.1,0.7-0.3,1c-0.2,0.3-0.4,0.5-0.6,0.8c-0.2,0.3-0.4,0.5-0.6,0.8c-0.2,0.3-0.3,0.6-0.3,1h0.6
		l1.5-1.6h0.2c0.4,0.3,0.8,0.7,1.2,1.2c0.4,0.5,0.8,0.9,1.1,1.4c0.3,0.4,0.7,0.8,1,1.1c0.3,0.3,0.6,0.5,0.8,0.5H85
		c0.1,0,0.5-0.3,1.1-0.8c0.6-0.5,1.3-1.1,2-1.8c0.7-0.7,1.4-1.3,2-1.9c0.6-0.6,0.9-1,1-1.2v-0.2l-0.2-0.1H90.6z M106.3,3.5
		c-1-0.7-2.1-1-3.3-1c-0.8,0-1.7,0.2-2.7,0.5c-0.9,0.3-1.7,0.8-2.5,1.3c-0.8,0.6-1.4,1.2-1.9,2c-0.5,0.8-0.7,1.7-0.7,2.6v25.3
		c0,0.4-0.1,0.8-0.4,1.1c-0.2,0.3-0.5,0.7-0.8,1c-0.3,0.3-0.5,0.6-0.8,0.9c-0.3,0.3-0.4,0.6-0.4,0.9v0.1c0,0.1,0.1,0.1,0.2,0.2
		c0.1,0,0.2,0,0.1,0l1.6-1.6h0.2c0.3,0,0.5,0.1,0.7,0.3c0.2,0.2,0.3,0.4,0.5,0.7c0.2,0.3,0.3,0.6,0.5,0.8c0.2,0.3,0.3,0.5,0.5,0.7
		c0.1,0.1,0.4,0.4,0.9,0.8c0.5,0.4,0.8,0.6,0.9,0.8h0.9c0.1,0,0.2-0.1,0.4-0.4c0.2-0.2,0.3-0.4,0.3-0.5c0.5-0.3,1-0.7,1.6-1.1
		c0.6-0.4,1.2-0.8,1.7-1.2c0.5-0.4,1-0.8,1.3-1.1c0.4-0.3,0.6-0.6,0.6-0.8v-0.3c-0.3,0-0.7,0.1-0.9,0.4c-0.2,0.2-0.5,0.3-0.8,0.3
		h-0.2c-0.3,0-0.6-0.2-0.9-0.6c-0.3-0.4-0.5-0.8-0.8-1.3c-0.2-0.5-0.4-0.9-0.5-1.4c-0.1-0.5-0.2-0.8-0.2-1V7.4
		c0-0.7,0.1-1.3,0.2-1.9c0.2-0.6,0.4-1,0.7-1.4c0.3-0.4,0.8-0.6,1.4-0.6c0.2,0,0.2,0.1,0.1,0.3c-0.1,0.2-0.2,0.4-0.3,0.8
		c-0.1,0.3-0.3,0.6-0.4,0.9c-0.2,0.3-0.2,0.6-0.2,0.8c0,0.8,0.2,1.4,0.7,1.9c0.4,0.5,1,0.7,1.8,0.7c0.9,0,1.5-0.2,1.9-0.8
		c0.4-0.5,0.6-1.2,0.6-2C107.8,5.1,107.3,4.2,106.3,3.5z M116.6,29.3c0.9-0.8,1.8-1.7,2.5-2.7c0.8-0.9,1.4-1.9,1.9-3
		c0.5-1.1,0.8-2.3,0.8-3.5c0-0.5-0.1-1.1-0.3-1.9c-0.2-0.8-0.5-1.6-0.9-2.4c-0.4-0.8-0.8-1.5-1.3-2c-0.5-0.6-1-0.9-1.6-0.9
		c-0.9,0.8-1.9,1.7-3,2.4c-1.1,0.8-2.2,1.6-3.3,2.4c-1,0.9-1.9,1.8-2.7,2.8c-0.8,1-1.1,2.1-1.1,3.4v7.9c0,0.8,0.2,1.6,0.5,2.6
		c0.3,0.9,0.8,1.9,1.4,2.8c0.6,0.9,1.3,1.7,2,2.4c0.8,0.7,1.5,1.2,2.3,1.5c0.3,0,0.7-0.2,1.3-0.6c0.6-0.4,1.2-0.9,1.9-1.5
		c0.7-0.5,1.3-1,1.8-1.5c0.6-0.5,0.9-0.8,1-0.9c0.3-0.2,0.7-0.6,1.1-1c0.4-0.5,0.7-0.7,0.7-0.8v-0.2H121c-0.5,0.3-0.9,0.7-1.3,1.1
		c-0.3,0.4-0.8,0.6-1.4,0.6c-0.3,0-0.6-0.2-1.1-0.5c-0.4-0.3-0.9-0.7-1.4-1.1c-0.4-0.4-0.8-0.9-1.2-1.4c-0.3-0.5-0.5-0.9-0.5-1.3
		v-0.3C114.9,30.9,115.7,30.1,116.6,29.3z M113.9,29.7c-0.1-1-0.2-1.9-0.2-2.7c0-0.8-0.1-1.6-0.1-2.5v-1.8c0-0.3,0-0.7,0-1.1
		c0-0.5,0-1,0-1.5c0-0.5,0.1-0.9,0.2-1.2c0.1-0.4,0.3-0.6,0.5-0.6c0.6,0,1.1,0.3,1.5,0.8c0.4,0.6,0.7,1.2,1,2
		c0.3,0.7,0.5,1.4,0.6,2.2c0.2,0.7,0.2,1.2,0.2,1.5c0,0.4-0.1,0.8-0.3,1.4c-0.2,0.6-0.4,1.1-0.8,1.7c-0.3,0.5-0.7,1-1.1,1.4
		c-0.4,0.4-0.8,0.6-1.1,0.6C114.2,29.8,114,29.8,113.9,29.7z M242.3,16.7c-0.6-1-1.4-2-2.3-2.9c-0.9-0.9-1.8-1.7-2.9-2.4
		c-1-0.7-1.9-1.3-2.8-1.9c-0.4-0.3-1.1-0.9-1.7-1.2c-0.6-0.3-1.2-0.9-1.7-1.3c-0.6-0.4-0.9-1-1.3-1.5c-0.4-0.6-0.6-1.2-0.6-2
		c0-0.4,0.1-0.7,0.2-1c0.2-0.3,0.3-0.6,0.5-0.8c0.2-0.2,0.3-0.5,0.4-0.7c0.1-0.2,0.2-0.5,0.2-0.9c-0.7,0-1.4,0.3-2,0.8
		c-0.6,0.5-1.1,1.1-1.5,1.9c-0.4,0.8-0.7,1.6-0.9,2.5c-0.2,0.9-0.3,1.7-0.3,2.5c0,2.2,0.5,3.8,1.5,4.7c0.9,0.9,2.1,1.7,3.4,2.5
		c0.2,0.1,0.2,0.2,0.2,0.5c0,0.1-0.3,0.4-0.8,0.8c-0.5,0.4-1.1,1-1.8,1.6c-0.6,0.7-1.2,1.4-1.8,2.3c-0.5,0.9-0.8,1.8-0.8,2.8v8.6
		c0,1.2,0.2,2.2,0.8,3.2c0.5,0.9,1.1,1.7,1.8,2.5c0.7,0.7,1.5,1.4,2.4,2.1c0.9,0.6,1.7,1.3,2.4,2h0.3c0.9-1,1.8-1.8,2.8-2.5
		c1-0.7,2-1.3,3.1-2c0.4-0.3,0.9-0.6,1.4-1c0.5-0.5,1-1,1.4-1.5c0.4-0.6,0.7-1.1,1-1.7c0.3-0.6,0.4-1.2,0.4-1.7V20.1
		C243.2,18.9,242.9,17.7,242.3,16.7z M237.1,35.6c-0.3,0.2-0.4,0.3-0.5,0.3c-0.4,0-0.9-0.2-1.4-0.7c-0.5-0.4-1-0.9-1.6-1.5
		c-0.5-0.6-0.9-1.2-1.2-1.8c-0.3-0.6-0.5-1.1-0.5-1.5V17.1c0-0.5,0.2-0.8,0.7-0.8c0.4,0,0.8,0.2,1.3,0.7c0.5,0.4,1,1,1.5,1.6
		c0.5,0.6,0.9,1.3,1.2,1.9c0.3,0.7,0.5,1.2,0.5,1.6V35.6z M218.5,16.5c-0.7-0.7-1.5-1.4-2.4-2l-2.3-1.7h-0.2c-1.5,1-2.7,1.9-3.8,2.6
		c-1,0.7-1.7,1.2-2.1,1.5c-1.4,1-2.4,2.2-3,3.5c-0.6,1.4-0.8,2.9-0.8,4.6c0,1.2,0,2.3,0,3.3c0.1,1,0.1,2.2,0.2,3.5
		c0.2,0.9,0.5,1.9,0.9,3c0.3,1,0.9,1.8,1.8,2.4c0.4,0.3,0.8,0.6,1.3,1l1.3,1.2l1.1,0.9c0.3,0.2,0.6,0.4,0.7,0.4
		c0.1,0,0.2-0.1,0.5-0.4c0.3-0.3,0.5-0.6,0.8-0.9l0.8-0.9c0.3-0.3,0.5-0.4,0.7-0.4l4.5-2.8c0.6-0.4,1.2-1.1,1.8-2
		c0.6-0.9,0.9-1.8,0.9-2.6v-8.9c0-1.1-0.2-2-0.8-2.9C219.8,18,219.2,17.2,218.5,16.5z M215.1,35.2c0,0.1,0,0.2-0.1,0.2h-0.2
		c-0.5,0-1.1-0.2-1.6-0.7c-0.5-0.4-1-1-1.4-1.6c-0.4-0.6-0.8-1.3-1.1-1.9c-0.3-0.7-0.5-1.2-0.6-1.7l0-1.2v-1.9c0-0.7,0-1.3,0-2v-3.3
		c0-0.4,0-0.8,0-1.2v-1.2l0-0.9l0.4-0.1c0.3-0.1,0.7,0.1,1.2,0.5c0.5,0.4,1,0.9,1.5,1.5c0.5,0.6,0.9,1.1,1.2,1.7
		c0.4,0.6,0.6,1,0.7,1.2l0,0.9c0.1,0.5,0.1,0.8,0.1,0.9V35.2z M197.8,16.5c-0.7-0.7-1.5-1.4-2.4-2l-2.3-1.7h-0.2
		c-1.5,1-2.7,1.9-3.8,2.6c-1,0.7-1.7,1.2-2.1,1.5c-1.4,1-2.4,2.2-3,3.5c-0.6,1.4-0.8,2.9-0.8,4.6c0,1.2,0,2.3,0,3.3
		c0.1,1,0.1,2.2,0.2,3.5c0.3,0.9,0.6,1.9,0.9,3c0.3,1,0.9,1.8,1.8,2.4c0.4,0.3,0.8,0.6,1.3,1l1.3,1.2l1.1,0.9
		c0.3,0.2,0.6,0.4,0.7,0.4c0.1,0,0.2-0.1,0.5-0.4c0.3-0.3,0.5-0.6,0.8-0.9l0.8-0.9c0.3-0.3,0.5-0.4,0.7-0.4l4.5-2.8
		c0.6-0.4,1.2-1.1,1.8-2c0.6-0.9,0.9-1.8,0.9-2.6v-8.9c0-1.1-0.3-2-0.8-2.9C199.1,18,198.5,17.2,197.8,16.5z M194.5,35.2
		c0,0.1,0,0.2-0.1,0.2h-0.2c-0.5,0-1.1-0.2-1.6-0.7c-0.5-0.4-1-1-1.4-1.6c-0.4-0.6-0.8-1.3-1.1-1.9c-0.3-0.7-0.5-1.2-0.6-1.7
		l-0.1-1.2v-1.9c0-0.7,0-1.3,0-2v-3.3c0-0.4,0-0.8,0-1.2v-1.2l0.1-0.9l0.4-0.1c0.3-0.1,0.7,0.1,1.2,0.5c0.5,0.4,1,0.9,1.5,1.5
		c0.5,0.6,0.9,1.1,1.2,1.7c0.4,0.6,0.6,1,0.7,1.2l0,0.9c0.1,0.5,0.1,0.8,0.1,0.9V35.2z M178.6,18.1c-0.4-0.6-0.8-1.3-1.3-1.9
		c-0.5-0.7-0.9-1.4-1.4-2.1c-0.4-0.7-0.8-1.5-1.1-2.3c-0.3-0.8-0.4-1.6-0.4-2.5c0-1,0.2-1.9,0.7-2.8c0.4-0.8,1-1.6,1.6-2.4V3.4
		c-0.4,0-0.8,0.2-1.3,0.5c-0.4,0.4-0.8,0.7-1.1,1.1l-0.5,0.6c-0.6,0.7-1.2,1.4-1.7,1.9c-0.5,0.6-1,1.1-1.5,1.7
		c-0.4,0.6-0.8,1.2-1.2,1.9c-0.3,0.7-0.6,1.5-0.9,2.5l-0.2,2.6c0,1.6,0.4,2.9,0.7,4.3c0.3,1.4,0.8,2.2,1.6,3.2
		c0.8,1.1,1.7,2.1,2.5,3.2c0.9,1,1.3,2.3,1.3,3.7v1.2c-0.3,0.7-0.7,1.3-1.4,2c-0.6,0.7-1.4,1-2.2,1c-0.2,0-0.6-0.2-1.2-0.7l-0.8-0.6
		l-0.3-0.2c-1.1-0.9-1.8-1.7-2.3-2.5c-0.5-0.9-0.9-1.7-1.2-2.6c-0.3-0.9-0.5-1.8-0.6-2.7c-0.1-0.9-0.1-1.9-0.1-3
		c0-2.1,0.1-6.9,0.2-9.4c0.1-2.5,0.4-5.1,0.7-7.7c0-0.8-0.2-1-0.5-1c-0.5,0-1.1,0.2-1.7,0.7c-0.6,0.5-1.1,0.8-1.4,1
		c-1.2,0.9-2.1,2-2.8,3.3c-0.7,1.3-1.2,2.7-1.5,4.3c-0.3,1.5-0.5,3.2-0.5,4.9c-0.1,1.7,0.3,4.4,0.3,5.6c0,0.9,0,1.9,0.1,2.8
		c0.1,0.9,0.1,1.9,0.1,2.8c0,0.2-0.1,0.5-0.3,0.9c-0.2,0.3-0.4,0.7-0.7,1c-0.3,0.3-0.6,0.6-0.9,0.9c-0.3,0.3-0.6,0.4-0.8,0.4
		c-0.3,0-0.8-0.2-1.3-0.6c-0.5-0.4-0.9-0.8-1.2-0.9c-0.9-0.5-1.8-0.9-2.7-1.1c-0.9-0.2-1.9-0.3-3-0.3c-1.3,0-2.8,0.2-4.3,0.7
		c-1.5,0.4-2.9,1.1-4.1,1.9c-1.3,0.8-2.3,1.8-3.2,3.1c-0.8,1.2-1.2,2.6-1.2,4.2c0,1.5,0.4,2.9,1.1,4c0.8,1.1,1.8,2.1,2.9,2.8
		c1.2,0.7,2.5,1.3,3.9,1.6c1.4,0.3,2.8,0.5,4,0.5c2.2,0,4.2-0.5,6.2-1.4c2-0.9,3.7-2.2,5.2-4c0.3-0.4,0.7-0.8,0.9-1.2
		c0.3-0.4,0.5-0.8,0.5-1.4c-1.2,1-2.1,1.8-2.9,2.5c-0.8,0.7-1.7,1.2-2.6,1.6c-0.9,0.4-1.9,0.8-2.9,0.9c-1,0.2-2.3,0.3-3.7,0.3
		c-1,0-2.2-0.1-3.6-0.2c-1.3-0.1-2.7-0.4-3.9-0.8c-1.2-0.4-2.3-1-3.1-1.9c-0.8-0.9-1.3-2-1.3-3.5c0-0.8,0.2-1.4,0.6-2
		c0.4-0.6,0.9-1,1.5-1.4c0.6-0.4,1.3-0.7,2-0.9c0.7-0.2,1.4-0.3,2-0.3c1.4,0,2.7,0.3,3.9,1c1.2,0.7,2.3,1.5,3.2,2.5
		c0.2,0.2,0.4,0.6,0.6,1c0.2,0.5,0.4,0.7,0.8,0.8c1.2-1.8,2.4-3.4,3.9-4.7c1.5-1.3,3-2.7,4.7-4c0.2,0,0.4,0.2,0.7,0.6
		c0.3,0.4,0.5,0.8,0.8,1.3l0.8,1.5c0.3,0.5,0.6,0.8,0.8,1l2.4,2.4L164,40l0.5,0.4h0.4c1.4-1.4,3-2.5,4.7-3.4c1.7-1,3.3-2,4.8-3.1
		c1.5-1.1,2.7-2.3,3.7-3.8c1-1.5,1.4-3.4,1.7-5.8c0.1-1,0.1-2.1-0.2-3.3C179.3,19.8,179.2,19.1,178.6,18.1z M136.2,11.6
		c0.8-0.1,1.7-0.1,2.5-0.1c2.6,0,4.6,0.8,5.8,2.3c1.3,1.5,1.9,3.6,1.9,6.2c0,0.9-0.1,1.8-0.3,2.7c-0.2,0.9-0.6,1.8-1,2.5
		c-0.5,0.8-1.1,1.4-1.8,1.9c-0.7,0.5-1.6,0.7-2.7,0.7H139c-0.4,0-0.7-0.1-1.1-0.2c-0.3-0.1-0.6-0.2-0.8-0.4
		c-0.2-0.2-0.3-0.5-0.3-0.8c1.4,0,2.6-0.3,3.6-0.8c1-0.5,1.5-1.6,1.5-3.2c0-1.1-0.3-2-1-2.7c-0.7-0.7-1.6-1.1-2.7-1.1
		c-1.1,0-1.9,0.3-2.5,0.8c-0.6,0.5-1.1,1.3-1.6,2.2v1.2c0,0.9,0.2,1.8,0.6,2.6c0.4,0.8,0.9,1.5,1.6,2c0.7,0.5,1.4,1,2.2,1.3
		c0.8,0.3,1.7,0.5,2.6,0.5c1.7,0,3.3-0.4,4.7-1.2c1.4-0.8,2.6-1.9,3.5-3.2c1-1.3,1.7-2.7,2.2-4.3c0.5-1.6,0.8-3.2,0.8-4.8
		c0-0.8-0.1-1.5-0.2-2.3c-0.2-0.7-0.2-1.5-0.2-2.4L151,9.2c0,0-0.2-0.1-0.4-0.3l-0.5-0.8l-0.6-0.8c-0.2-0.3-0.4-0.4-0.4-0.4L148.3,6
		l-0.9-1c-0.9-0.8-2-1.4-3.3-1.6c-1.3-0.3-2.5-0.5-3.7-0.5c-1.1,0-2.1,0.1-3.1,0.2c-1,0.1-2,0.3-3.1,0.7c-0.9,0.3-1.8,0.6-2.7,0.9
		c-0.8,0.3-1.7,0.5-2.7,0.5c-0.4,0-0.8-0.1-1.3-0.2c-0.5-0.1-0.7-0.5-0.7-1.1l0.1-0.5c0.1-0.3,0.2-0.8,0.2-0.8
		c0-0.3-0.2-0.5-0.2-0.5c-0.2,0-0.5,0.1-0.7,0.4c-0.2,0.2-0.3,0.5-0.4,0.8c-0.1,0.3-0.2,0.6-0.2,0.9c0,0.3,0,0.8,0,0.8
		c0,1.1,0.2,2.1,0.7,2.9c0.5,0.8,1.1,1.5,1.8,2.1c0.8,0.6,1.6,1,2.5,1.3c1,0.3,1.9,0.4,2.9,0.4C134.6,11.7,135.4,11.7,136.2,11.6z"
		/>
	<g>
		<path class="st2" d="M73.5,62.7c0,0.3-0.1,0.3-0.6,0.3h-3.6c-0.5,0-0.5,0-0.7-0.2L64.8,59h-1.3v2.6h1.3c0.5,0,0.6,0,0.6,0.3v0.8
			c0,0.3-0.1,0.3-0.6,0.3h-6.6c-0.5,0-0.6,0-0.6-0.3v-0.8c0-0.3,0.1-0.3,0.6-0.3h1.4v-6.9h-1.4c-0.5,0-0.6,0-0.6-0.3v-0.8
			c0-0.3,0.1-0.3,0.6-0.3h6.6c2.2,0,6.6,0.1,6.6,2.7c0,1.8-2.2,2.3-3.2,2.6l3.4,3h1.3c0.5,0,0.6,0,0.6,0.3V62.7z M64.2,57.5
			c1.8,0,3.4-0.1,3.4-1.4c0-1.2-1.6-1.3-3.1-1.3h-1v2.7H64.2z"/>
		<path class="st2" d="M91.1,62.7c0,0.3-0.1,0.3-0.6,0.3H79.3c-0.5,0-0.6,0-0.6-0.3v-0.8c0-0.3,0.1-0.3,0.6-0.3h1.4v-6.9h-1.4
			c-0.5,0-0.6,0-0.6-0.3v-0.8c0-0.3,0.1-0.3,0.6-0.3h11.3c0.5,0,0.6,0,0.6,0.2v2.1c0,0.3-0.1,0.3-0.6,0.3h-1.9c-0.5,0-0.6,0-0.6-0.3
			v-0.9h-3.6v2.3h3.6c0.5,0,0.6,0,0.6,0.3v0.9c0,0.3-0.1,0.3-0.6,0.3h-3.6v2.8h3.6v-1c0-0.2,0.1-0.3,0.6-0.3h1.9
			c0.5,0,0.6,0,0.6,0.3V62.7z"/>
		<path class="st2" d="M106.1,54.8c-0.3-0.1-1-0.2-1.9-0.2c-1.3,0-2.6,0.3-2.6,1.1c0,1.1,3.3,1.3,5.8,2.2c1.4,0.5,2.4,1.3,2.4,2.4
			c0,1.8-2.5,3-6.1,3c-2.1,0-5.8-0.3-5.8-1v-2.1c0-0.2,0.1-0.2,0.5-0.2h2.1c0.4,0,0.5,0,0.5,0.2v1.3c0.4,0.1,1.4,0.3,2.7,0.3
			c1.6,0,2.5-0.4,2.5-1.3c0-1.3-2.9-1.4-5.8-2.3c-1.5-0.4-2.5-1-2.5-2.2c0-2,2.9-2.9,6.2-2.9c2,0,5,0.4,5,0.9v1.9
			c0,0.2-0.1,0.2-0.5,0.2h-2.1c-0.4,0-0.5,0-0.5-0.2V54.8z"/>
		<path class="st2" d="M128.1,62.7c0,0.3-0.1,0.3-0.6,0.3h-11.3c-0.5,0-0.6,0-0.6-0.3v-0.8c0-0.3,0.1-0.3,0.6-0.3h1.4v-6.9h-1.4
			c-0.5,0-0.6,0-0.6-0.3v-0.8c0-0.3,0.1-0.3,0.6-0.3h11.3c0.5,0,0.6,0,0.6,0.2v2.1c0,0.3-0.1,0.3-0.6,0.3h-1.9c-0.5,0-0.6,0-0.6-0.3
			v-0.9h-3.6v2.3h3.6c0.5,0,0.6,0,0.6,0.3v0.9c0,0.3-0.1,0.3-0.6,0.3h-3.6v2.8h3.6v-1c0-0.2,0.1-0.3,0.6-0.3h1.9
			c0.5,0,0.6,0,0.6,0.3V62.7z"/>
		<path class="st2" d="M150.6,62.7c0,0.3-0.1,0.3-0.6,0.3h-3.6c-0.5,0-0.5,0-0.6-0.2l-3.8-3.8h-1.4v2.6h1.3c0.5,0,0.6,0,0.6,0.3v0.8
			c0,0.3-0.1,0.3-0.6,0.3h-6.6c-0.5,0-0.6,0-0.6-0.3v-0.8c0-0.3,0.1-0.3,0.6-0.3h1.4v-6.9h-1.4c-0.5,0-0.6,0-0.6-0.3v-0.8
			c0-0.3,0.1-0.3,0.6-0.3h6.6c2.2,0,6.6,0.1,6.6,2.7c0,1.8-2.2,2.3-3.2,2.6l3.4,3h1.3c0.5,0,0.6,0,0.6,0.3V62.7z M141.3,57.5
			c1.8,0,3.4-0.1,3.4-1.4c0-1.2-1.6-1.3-3.1-1.3h-1v2.7H141.3z"/>
		<path class="st2" d="M164.2,63c-0.1,0.2-0.1,0.2-0.6,0.2h-2.3c-0.5,0-0.5,0-0.6-0.2l-4.5-8.3h-1.1c-0.4,0-0.5,0-0.5-0.2v-0.9
			c0-0.2,0.1-0.2,0.5-0.2h4.1c0.4,0,0.4,0,0.5,0.2l3.2,6.5h0.1l3.6-6.5c0.1-0.2,0.1-0.2,0.5-0.2h2.9c0.4,0,0.5,0,0.5,0.2v0.9
			c0,0.2-0.1,0.2-0.5,0.2h-1.1L164.2,63z"/>
		<path class="st2" d="M188.1,62.7c0,0.3-0.1,0.3-0.6,0.3h-11.3c-0.5,0-0.6,0-0.6-0.3v-0.8c0-0.3,0.1-0.3,0.6-0.3h1.4v-6.9h-1.4
			c-0.5,0-0.6,0-0.6-0.3v-0.8c0-0.3,0.1-0.3,0.6-0.3h11.3c0.5,0,0.6,0,0.6,0.2v2.1c0,0.3-0.1,0.3-0.6,0.3h-1.9c-0.5,0-0.6,0-0.6-0.3
			v-0.9h-3.6v2.3h3.6c0.5,0,0.6,0,0.6,0.3v0.9c0,0.3-0.1,0.3-0.6,0.3h-3.6v2.8h3.6v-1c0-0.2,0.1-0.3,0.6-0.3h1.9
			c0.5,0,0.6,0,0.6,0.3V62.7z"/>
	</g>
</g>
<g id="XMLID_3546_">
	<path id="XMLID_3550_" d="M246.5,8.9l1,1.4h-0.9L245.7,9h-0.8v1.3h-0.7V6.5h1.7c0.9,0,1.5,0.5,1.5,1.2C247.4,8.4,247,8.7,246.5,8.9
		z M245.9,7.2h-0.9v1.2h0.9c0.5,0,0.8-0.2,0.8-0.6C246.6,7.4,246.3,7.2,245.9,7.2z"/>
	<path id="XMLID_3547_" d="M245.7,4.9c-2,0-3.7,1.7-3.7,3.7c0,2,1.6,3.6,3.6,3.6c2,0,3.7-1.7,3.7-3.7C249.3,6.5,247.7,4.9,245.7,4.9
		z M245.6,11.6c-1.7,0-3.1-1.4-3.1-3.1c0-1.7,1.3-3.1,3.1-3.1c1.7,0,3.1,1.4,3.1,3.1C248.7,10.2,247.4,11.6,245.6,11.6z"/>
</g>
</svg>
